<svg width="107" height="32" viewBox="0 0 107 32" fill="none" xmlns="http://www.w3.org/2000/svg">
<path d="M102 0H31V32H102C104.761 32 107 29.7614 107 27V5C107 2.23858 104.761 0 102 0Z" fill="#0F1418"/>
<path d="M102 0H31V32H102C104.761 32 107 29.7614 107 27V5C107 2.23858 104.761 0 102 0Z" fill="#0F1418"/>
<path d="M5 0.5H30.5V31.5H5C2.51472 31.5 0.5 29.4853 0.5 27V5C0.5 2.51472 2.51472 0.5 5 0.5Z" fill="white" stroke="#1C2125"/>
<path d="M5 0.5H30.5V31.5H5C2.51472 31.5 0.5 29.4853 0.5 27V5C0.5 2.51472 2.51472 0.5 5 0.5Z" fill="white" stroke="#1C2125"/>
<path d="M54.5879 22H52.2002L47.8716 15.4009C47.6177 15.0151 47.4419 14.7246 47.3443 14.5293H47.315C47.354 14.9004 47.3736 15.4668 47.3736 16.2285V22H45.1397V11.4971H47.6885L51.856 17.8911C52.0464 18.1792 52.2222 18.4648 52.3833 18.748H52.4126C52.3736 18.5039 52.354 18.0229 52.354 17.3052V11.4971H54.5879V22ZM63.9452 18.9092H59.0526C59.1307 19.998 59.8168 20.5425 61.1107 20.5425C61.9359 20.5425 62.661 20.3472 63.286 19.9565V21.6265C62.5926 21.9976 61.6918 22.1831 60.5834 22.1831C59.3724 22.1831 58.4325 21.8486 57.7635 21.1797C57.0946 20.5059 56.7601 19.5684 56.7601 18.3672C56.7601 17.1221 57.1214 16.1357 57.8441 15.4082C58.5668 14.6807 59.4554 14.3169 60.5101 14.3169C61.6039 14.3169 62.4486 14.6416 63.0443 15.291C63.6449 15.9404 63.9452 16.8218 63.9452 17.9351V18.9092ZM61.7992 17.4883C61.7992 16.4141 61.3646 15.877 60.4955 15.877C60.1244 15.877 59.8021 16.0308 59.5287 16.3384C59.2601 16.646 59.0965 17.0293 59.0379 17.4883H61.7992ZM72.7458 14.5L70.2702 18.1328L72.7311 22H70.0651L68.9811 19.9785C68.8932 19.8174 68.7883 19.5903 68.6662 19.2974H68.6369C68.5637 19.5024 68.4636 19.7222 68.3366 19.9565L67.2453 22H64.5866L67.1208 18.2646L64.7404 14.5H67.4211L68.4904 16.6021C68.632 16.8804 68.7321 17.1147 68.7907 17.3052H68.82C68.8981 17.0757 69.0031 16.8364 69.1349 16.5874L70.2262 14.5H72.7458ZM78.5068 21.9121C78.165 22.0928 77.6499 22.1831 76.9614 22.1831C75.3306 22.1831 74.5151 21.3359 74.5151 19.6416V16.2065H73.2993V14.5H74.5151V12.8813L76.8223 12.2222V14.5H78.5068V16.2065H76.8223V19.2388C76.8223 20.02 77.1323 20.4106 77.7524 20.4106C77.9966 20.4106 78.248 20.3398 78.5068 20.1982V21.9121ZM81.0306 22.1831C80.6497 22.1831 80.3323 22.0659 80.0784 21.8315C79.8245 21.5972 79.6976 21.3091 79.6976 20.9673C79.6976 20.6157 79.827 20.3276 80.0858 20.103C80.3494 19.8784 80.6766 19.7661 81.0672 19.7661C81.4627 19.7661 81.785 19.8809 82.034 20.1104C82.2879 20.335 82.4149 20.6206 82.4149 20.9673C82.4149 21.3237 82.2855 21.6167 82.0267 21.8462C81.7728 22.0708 81.4407 22.1831 81.0306 22.1831ZM85.422 13.3135C85.0314 13.3135 84.7116 13.1987 84.4625 12.9692C84.2135 12.7349 84.089 12.4492 84.089 12.1123C84.089 11.7656 84.2135 11.4824 84.4625 11.2627C84.7116 11.043 85.0314 10.9331 85.422 10.9331C85.8175 10.9331 86.1373 11.043 86.3815 11.2627C86.6305 11.4824 86.755 11.7656 86.755 12.1123C86.755 12.4639 86.6305 12.752 86.3815 12.9766C86.1373 13.2012 85.8175 13.3135 85.422 13.3135ZM86.5646 21.8682C86.5646 22.9766 86.2936 23.8628 85.7516 24.5269C85.2096 25.1909 84.4284 25.5229 83.4079 25.5229C83.0709 25.5229 82.7023 25.4497 82.3019 25.3032V23.4868C82.6242 23.6675 82.9098 23.7578 83.1588 23.7578C83.8864 23.7578 84.2501 23.1865 84.2501 22.0439V14.5H86.5646V21.8682ZM88.2021 21.8022V19.9272C88.583 20.1567 88.9614 20.3276 89.3374 20.4399C89.7182 20.5522 90.0771 20.6084 90.414 20.6084C90.8242 20.6084 91.1464 20.5522 91.3808 20.4399C91.6201 20.3276 91.7397 20.1567 91.7397 19.9272C91.7397 19.7808 91.686 19.6587 91.5786 19.561C91.4712 19.4634 91.332 19.3779 91.1611 19.3047C90.9951 19.2314 90.812 19.1655 90.6118 19.1069C90.4116 19.0483 90.2187 18.9824 90.0332 18.9092C89.7353 18.7969 89.4716 18.6772 89.2421 18.5503C89.0175 18.4185 88.8271 18.2671 88.6709 18.0962C88.5195 17.9253 88.4023 17.7275 88.3193 17.5029C88.2412 17.2783 88.2021 17.0122 88.2021 16.7046C88.2021 16.2847 88.2924 15.9233 88.4731 15.6206C88.6587 15.3179 88.9028 15.0713 89.2055 14.8809C89.5131 14.6855 89.8623 14.5439 90.2529 14.4561C90.6484 14.3633 91.0586 14.3169 91.4834 14.3169C91.8154 14.3169 92.1523 14.3438 92.4941 14.3975C92.8359 14.4463 93.1728 14.5195 93.5048 14.6172V16.4043C93.2119 16.2334 92.8969 16.1064 92.56 16.0234C92.228 15.9355 91.9008 15.8916 91.5786 15.8916C91.4272 15.8916 91.2832 15.9062 91.1464 15.9355C91.0146 15.96 90.8974 15.999 90.7949 16.0527C90.6923 16.1016 90.6118 16.1675 90.5532 16.2505C90.4946 16.3286 90.4653 16.4189 90.4653 16.5215C90.4653 16.6582 90.5092 16.7754 90.5971 16.873C90.685 16.9707 90.7998 17.0562 90.9414 17.1294C91.083 17.1978 91.2392 17.2612 91.4101 17.3198C91.5859 17.3735 91.7592 17.4297 91.9301 17.4883C92.2378 17.5957 92.5161 17.7129 92.7651 17.8398C93.0141 17.9668 93.2265 18.1157 93.4023 18.2866C93.583 18.4575 93.7197 18.6577 93.8125 18.8872C93.9101 19.1167 93.9589 19.3901 93.9589 19.7075C93.9589 20.1519 93.8613 20.5327 93.666 20.8501C93.4755 21.1626 93.2192 21.4189 92.8969 21.6191C92.5796 21.8145 92.2109 21.9561 91.791 22.0439C91.3759 22.1367 90.9438 22.1831 90.4946 22.1831C89.6694 22.1831 88.9052 22.0562 88.2021 21.8022Z" fill="white"/>
<path d="M54.5879 22H52.2002L47.8716 15.4009C47.6177 15.0151 47.4419 14.7246 47.3443 14.5293H47.315C47.354 14.9004 47.3736 15.4668 47.3736 16.2285V22H45.1397V11.4971H47.6885L51.856 17.8911C52.0464 18.1792 52.2222 18.4648 52.3833 18.748H52.4126C52.3736 18.5039 52.354 18.0229 52.354 17.3052V11.4971H54.5879V22ZM63.9452 18.9092H59.0526C59.1307 19.998 59.8168 20.5425 61.1107 20.5425C61.9359 20.5425 62.661 20.3472 63.286 19.9565V21.6265C62.5926 21.9976 61.6918 22.1831 60.5834 22.1831C59.3724 22.1831 58.4325 21.8486 57.7635 21.1797C57.0946 20.5059 56.7601 19.5684 56.7601 18.3672C56.7601 17.1221 57.1214 16.1357 57.8441 15.4082C58.5668 14.6807 59.4554 14.3169 60.5101 14.3169C61.6039 14.3169 62.4486 14.6416 63.0443 15.291C63.6449 15.9404 63.9452 16.8218 63.9452 17.9351V18.9092ZM61.7992 17.4883C61.7992 16.4141 61.3646 15.877 60.4955 15.877C60.1244 15.877 59.8021 16.0308 59.5287 16.3384C59.2601 16.646 59.0965 17.0293 59.0379 17.4883H61.7992ZM72.7458 14.5L70.2702 18.1328L72.7311 22H70.0651L68.9811 19.9785C68.8932 19.8174 68.7883 19.5903 68.6662 19.2974H68.6369C68.5637 19.5024 68.4636 19.7222 68.3366 19.9565L67.2453 22H64.5866L67.1208 18.2646L64.7404 14.5H67.4211L68.4904 16.6021C68.632 16.8804 68.7321 17.1147 68.7907 17.3052H68.82C68.8981 17.0757 69.0031 16.8364 69.1349 16.5874L70.2262 14.5H72.7458ZM78.5068 21.9121C78.165 22.0928 77.6499 22.1831 76.9614 22.1831C75.3306 22.1831 74.5151 21.3359 74.5151 19.6416V16.2065H73.2993V14.5H74.5151V12.8813L76.8223 12.2222V14.5H78.5068V16.2065H76.8223V19.2388C76.8223 20.02 77.1323 20.4106 77.7524 20.4106C77.9966 20.4106 78.248 20.3398 78.5068 20.1982V21.9121ZM81.0306 22.1831C80.6497 22.1831 80.3323 22.0659 80.0784 21.8315C79.8245 21.5972 79.6976 21.3091 79.6976 20.9673C79.6976 20.6157 79.827 20.3276 80.0858 20.103C80.3494 19.8784 80.6766 19.7661 81.0672 19.7661C81.4627 19.7661 81.785 19.8809 82.034 20.1104C82.2879 20.335 82.4149 20.6206 82.4149 20.9673C82.4149 21.3237 82.2855 21.6167 82.0267 21.8462C81.7728 22.0708 81.4407 22.1831 81.0306 22.1831ZM85.422 13.3135C85.0314 13.3135 84.7116 13.1987 84.4625 12.9692C84.2135 12.7349 84.089 12.4492 84.089 12.1123C84.089 11.7656 84.2135 11.4824 84.4625 11.2627C84.7116 11.043 85.0314 10.9331 85.422 10.9331C85.8175 10.9331 86.1373 11.043 86.3815 11.2627C86.6305 11.4824 86.755 11.7656 86.755 12.1123C86.755 12.4639 86.6305 12.752 86.3815 12.9766C86.1373 13.2012 85.8175 13.3135 85.422 13.3135ZM86.5646 21.8682C86.5646 22.9766 86.2936 23.8628 85.7516 24.5269C85.2096 25.1909 84.4284 25.5229 83.4079 25.5229C83.0709 25.5229 82.7023 25.4497 82.3019 25.3032V23.4868C82.6242 23.6675 82.9098 23.7578 83.1588 23.7578C83.8864 23.7578 84.2501 23.1865 84.2501 22.0439V14.5H86.5646V21.8682ZM88.2021 21.8022V19.9272C88.583 20.1567 88.9614 20.3276 89.3374 20.4399C89.7182 20.5522 90.0771 20.6084 90.414 20.6084C90.8242 20.6084 91.1464 20.5522 91.3808 20.4399C91.6201 20.3276 91.7397 20.1567 91.7397 19.9272C91.7397 19.7808 91.686 19.6587 91.5786 19.561C91.4712 19.4634 91.332 19.3779 91.1611 19.3047C90.9951 19.2314 90.812 19.1655 90.6118 19.1069C90.4116 19.0483 90.2187 18.9824 90.0332 18.9092C89.7353 18.7969 89.4716 18.6772 89.2421 18.5503C89.0175 18.4185 88.8271 18.2671 88.6709 18.0962C88.5195 17.9253 88.4023 17.7275 88.3193 17.5029C88.2412 17.2783 88.2021 17.0122 88.2021 16.7046C88.2021 16.2847 88.2924 15.9233 88.4731 15.6206C88.6587 15.3179 88.9028 15.0713 89.2055 14.8809C89.5131 14.6855 89.8623 14.5439 90.2529 14.4561C90.6484 14.3633 91.0586 14.3169 91.4834 14.3169C91.8154 14.3169 92.1523 14.3438 92.4941 14.3975C92.8359 14.4463 93.1728 14.5195 93.5048 14.6172V16.4043C93.2119 16.2334 92.8969 16.1064 92.56 16.0234C92.228 15.9355 91.9008 15.8916 91.5786 15.8916C91.4272 15.8916 91.2832 15.9062 91.1464 15.9355C91.0146 15.96 90.8974 15.999 90.7949 16.0527C90.6923 16.1016 90.6118 16.1675 90.5532 16.2505C90.4946 16.3286 90.4653 16.4189 90.4653 16.5215C90.4653 16.6582 90.5092 16.7754 90.5971 16.873C90.685 16.9707 90.7998 17.0562 90.9414 17.1294C91.083 17.1978 91.2392 17.2612 91.4101 17.3198C91.5859 17.3735 91.7592 17.4297 91.9301 17.4883C92.2378 17.5957 92.5161 17.7129 92.7651 17.8398C93.0141 17.9668 93.2265 18.1157 93.4023 18.2866C93.583 18.4575 93.7197 18.6577 93.8125 18.8872C93.9101 19.1167 93.9589 19.3901 93.9589 19.7075C93.9589 20.1519 93.8613 20.5327 93.666 20.8501C93.4755 21.1626 93.2192 21.4189 92.8969 21.6191C92.5796 21.8145 92.2109 21.9561 91.791 22.0439C91.3759 22.1367 90.9438 22.1831 90.4946 22.1831C89.6694 22.1831 88.9052 22.0562 88.2021 21.8022Z" fill="white"/>
<path d="M102 0H31V32H102C104.761 32 107 29.7614 107 27V5C107 2.23858 104.761 0 102 0Z" fill="#0F1418"/>
<path d="M102 0H31V32H102C104.761 32 107 29.7614 107 27V5C107 2.23858 104.761 0 102 0Z" fill="#0F1418"/>
<path d="M5 0.5H30.5V31.5H5C2.51472 31.5 0.5 29.4853 0.5 27V5C0.5 2.51472 2.51472 0.5 5 0.5Z" fill="white" stroke="#1C2125"/>
<path d="M5 0.5H30.5V31.5H5C2.51472 31.5 0.5 29.4853 0.5 27V5C0.5 2.51472 2.51472 0.5 5 0.5Z" fill="white" stroke="#1C2125"/>
<path d="M41.8082 22H35.5093V11.4971H41.5665V13.4233H37.8751V15.7598H41.3101V17.6787H37.8751V20.0811H41.8082V22ZM50.953 14.5L48.4774 18.1328L50.9384 22H48.2723L47.1884 19.9785C47.1005 19.8174 46.9955 19.5903 46.8734 19.2974H46.8441C46.7709 19.5024 46.6708 19.7222 46.5438 19.9565L45.4525 22H42.7938L45.328 18.2646L42.9476 14.5H45.6283L46.6976 16.6021C46.8392 16.8804 46.9393 17.1147 46.9979 17.3052H47.0272C47.1054 17.0757 47.2103 16.8364 47.3422 16.5874L48.4335 14.5H50.953ZM54.5241 21.1284H54.4948V25.4497H52.1804V14.5H54.4948V15.6279H54.5241C55.0954 14.7539 55.8986 14.3169 56.9338 14.3169C57.9055 14.3169 58.655 14.6514 59.1823 15.3203C59.7146 15.9844 59.9807 16.8901 59.9807 18.0376C59.9807 19.2876 59.6706 20.291 59.0505 21.0479C58.4353 21.8047 57.6149 22.1831 56.5896 22.1831C55.6862 22.1831 54.9978 21.8315 54.5241 21.1284ZM54.4582 18.0522V18.6528C54.4582 19.1704 54.5949 19.5928 54.8684 19.9199C55.1418 20.2471 55.5007 20.4106 55.945 20.4106C56.4724 20.4106 56.8801 20.208 57.1682 19.8027C57.4611 19.3926 57.6076 18.814 57.6076 18.0669C57.6076 16.7485 57.0949 16.0894 56.0695 16.0894C55.5959 16.0894 55.2077 16.27 54.905 16.6313C54.6071 16.9878 54.4582 17.4614 54.4582 18.0522ZM66.5547 16.5874C66.2764 16.436 65.9517 16.3604 65.5806 16.3604C65.0777 16.3604 64.6846 16.5459 64.4014 16.917C64.1182 17.2832 63.9766 17.7837 63.9766 18.4185V22H61.6621V14.5H63.9766V15.8916H64.0059C64.3721 14.876 65.0313 14.3682 65.9834 14.3682C66.2276 14.3682 66.418 14.3975 66.5547 14.4561V16.5874ZM74.4984 18.9092H69.6058C69.6839 19.998 70.37 20.5425 71.6639 20.5425C72.4891 20.5425 73.2142 20.3472 73.8392 19.9565V21.6265C73.1458 21.9976 72.245 22.1831 71.1366 22.1831C69.9256 22.1831 68.9857 21.8486 68.3167 21.1797C67.6478 20.5059 67.3133 19.5684 67.3133 18.3672C67.3133 17.1221 67.6746 16.1357 68.3973 15.4082C69.12 14.6807 70.0086 14.3169 71.0633 14.3169C72.1571 14.3169 73.0018 14.6416 73.5975 15.291C74.1981 15.9404 74.4984 16.8218 74.4984 17.9351V18.9092ZM72.3524 17.4883C72.3524 16.4141 71.9178 15.877 71.0487 15.877C70.6776 15.877 70.3553 16.0308 70.0819 16.3384C69.8133 16.646 69.6497 17.0293 69.5912 17.4883H72.3524ZM75.5646 21.8022V19.9272C75.9455 20.1567 76.3239 20.3276 76.6999 20.4399C77.0807 20.5522 77.4396 20.6084 77.7765 20.6084C78.1867 20.6084 78.5089 20.5522 78.7433 20.4399C78.9826 20.3276 79.1022 20.1567 79.1022 19.9272C79.1022 19.7808 79.0485 19.6587 78.9411 19.561C78.8337 19.4634 78.6945 19.3779 78.5236 19.3047C78.3576 19.2314 78.1745 19.1655 77.9743 19.1069C77.7741 19.0483 77.5812 18.9824 77.3957 18.9092C77.0978 18.7969 76.8341 18.6772 76.6046 18.5503C76.38 18.4185 76.1896 18.2671 76.0334 18.0962C75.882 17.9253 75.7648 17.7275 75.6818 17.5029C75.6037 17.2783 75.5646 17.0122 75.5646 16.7046C75.5646 16.2847 75.6549 15.9233 75.8356 15.6206C76.0212 15.3179 76.2653 15.0713 76.568 14.8809C76.8756 14.6855 77.2248 14.5439 77.6154 14.4561C78.0109 14.3633 78.4211 14.3169 78.8459 14.3169C79.1779 14.3169 79.5148 14.3438 79.8566 14.3975C80.1984 14.4463 80.5353 14.5195 80.8673 14.6172V16.4043C80.5744 16.2334 80.2594 16.1064 79.9225 16.0234C79.5905 15.9355 79.2633 15.8916 78.9411 15.8916C78.7897 15.8916 78.6457 15.9062 78.5089 15.9355C78.3771 15.96 78.2599 15.999 78.1574 16.0527C78.0548 16.1016 77.9743 16.1675 77.9157 16.2505C77.8571 16.3286 77.8278 16.4189 77.8278 16.5215C77.8278 16.6582 77.8717 16.7754 77.9596 16.873C78.0475 16.9707 78.1623 17.0562 78.3039 17.1294C78.4455 17.1978 78.6017 17.2612 78.7726 17.3198C78.9484 17.3735 79.1217 17.4297 79.2926 17.4883C79.6003 17.5957 79.8786 17.7129 80.1276 17.8398C80.3766 17.9668 80.589 18.1157 80.7648 18.2866C80.9455 18.4575 81.0822 18.6577 81.175 18.8872C81.2726 19.1167 81.3214 19.3901 81.3214 19.7075C81.3214 20.1519 81.2238 20.5327 81.0285 20.8501C80.838 21.1626 80.5817 21.4189 80.2594 21.6191C79.9421 21.8145 79.5734 21.9561 79.1535 22.0439C78.7384 22.1367 78.3063 22.1831 77.8571 22.1831C77.0319 22.1831 76.2677 22.0562 75.5646 21.8022ZM82.3511 21.8022V19.9272C82.7319 20.1567 83.1103 20.3276 83.4863 20.4399C83.8672 20.5522 84.2261 20.6084 84.563 20.6084C84.9731 20.6084 85.2954 20.5522 85.5298 20.4399C85.769 20.3276 85.8887 20.1567 85.8887 19.9272C85.8887 19.7808 85.8349 19.6587 85.7275 19.561C85.6201 19.4634 85.4809 19.3779 85.31 19.3047C85.144 19.2314 84.9609 19.1655 84.7607 19.1069C84.5605 19.0483 84.3677 18.9824 84.1821 18.9092C83.8843 18.7969 83.6206 18.6772 83.3911 18.5503C83.1665 18.4185 82.9761 18.2671 82.8198 18.0962C82.6684 17.9253 82.5513 17.7275 82.4682 17.5029C82.3901 17.2783 82.3511 17.0122 82.3511 16.7046C82.3511 16.2847 82.4414 15.9233 82.6221 15.6206C82.8076 15.3179 83.0517 15.0713 83.3545 14.8809C83.6621 14.6855 84.0112 14.5439 84.4018 14.4561C84.7973 14.3633 85.2075 14.3169 85.6323 14.3169C85.9643 14.3169 86.3013 14.3438 86.643 14.3975C86.9848 14.4463 87.3218 14.5195 87.6538 14.6172V16.4043C87.3608 16.2334 87.0459 16.1064 86.709 16.0234C86.3769 15.9355 86.0498 15.8916 85.7275 15.8916C85.5762 15.8916 85.4321 15.9062 85.2954 15.9355C85.1636 15.96 85.0464 15.999 84.9438 16.0527C84.8413 16.1016 84.7607 16.1675 84.7021 16.2505C84.6435 16.3286 84.6142 16.4189 84.6142 16.5215C84.6142 16.6582 84.6582 16.7754 84.7461 16.873C84.834 16.9707 84.9487 17.0562 85.0903 17.1294C85.2319 17.1978 85.3882 17.2612 85.5591 17.3198C85.7348 17.3735 85.9082 17.4297 86.0791 17.4883C86.3867 17.5957 86.665 17.7129 86.914 17.8398C87.1631 17.9668 87.3755 18.1157 87.5513 18.2866C87.7319 18.4575 87.8686 18.6577 87.9614 18.8872C88.0591 19.1167 88.1079 19.3901 88.1079 19.7075C88.1079 20.1519 88.0102 20.5327 87.8149 20.8501C87.6245 21.1626 87.3681 21.4189 87.0459 21.6191C86.7285 21.8145 86.3598 21.9561 85.9399 22.0439C85.5249 22.1367 85.0928 22.1831 84.6435 22.1831C83.8183 22.1831 83.0542 22.0562 82.3511 21.8022ZM90.6609 22.1831C90.2801 22.1831 89.9627 22.0659 89.7088 21.8315C89.4549 21.5972 89.3279 21.3091 89.3279 20.9673C89.3279 20.6157 89.4573 20.3276 89.7161 20.103C89.9798 19.8784 90.3069 19.7661 90.6976 19.7661C91.0931 19.7661 91.4153 19.8809 91.6644 20.1104C91.9183 20.335 92.0452 20.6206 92.0452 20.9673C92.0452 21.3237 91.9158 21.6167 91.657 21.8462C91.4031 22.0708 91.0711 22.1831 90.6609 22.1831ZM95.0524 13.3135C94.6617 13.3135 94.3419 13.1987 94.0929 12.9692C93.8439 12.7349 93.7194 12.4492 93.7194 12.1123C93.7194 11.7656 93.8439 11.4824 94.0929 11.2627C94.3419 11.043 94.6617 10.9331 95.0524 10.9331C95.4479 10.9331 95.7677 11.043 96.0118 11.2627C96.2609 11.4824 96.3854 11.7656 96.3854 12.1123C96.3854 12.4639 96.2609 12.752 96.0118 12.9766C95.7677 13.2012 95.4479 13.3135 95.0524 13.3135ZM96.1949 21.8682C96.1949 22.9766 95.9239 23.8628 95.382 24.5269C94.84 25.1909 94.0587 25.5229 93.0382 25.5229C92.7013 25.5229 92.3326 25.4497 91.9322 25.3032V23.4868C92.2545 23.6675 92.5402 23.7578 92.7892 23.7578C93.5167 23.7578 93.8805 23.1865 93.8805 22.0439V14.5H96.1949V21.8682ZM97.8325 21.8022V19.9272C98.2133 20.1567 98.5917 20.3276 98.9677 20.4399C99.3486 20.5522 99.7075 20.6084 100.044 20.6084C100.455 20.6084 100.777 20.5522 101.011 20.4399C101.25 20.3276 101.37 20.1567 101.37 19.9272C101.37 19.7808 101.316 19.6587 101.209 19.561C101.102 19.4634 100.962 19.3779 100.791 19.3047C100.625 19.2314 100.442 19.1655 100.242 19.1069C100.042 19.0483 99.8491 18.9824 99.6635 18.9092C99.3657 18.7969 99.102 18.6772 98.8725 18.5503C98.6479 18.4185 98.4575 18.2671 98.3012 18.0962C98.1498 17.9253 98.0327 17.7275 97.9496 17.5029C97.8715 17.2783 97.8325 17.0122 97.8325 16.7046C97.8325 16.2847 97.9228 15.9233 98.1035 15.6206C98.289 15.3179 98.5331 15.0713 98.8359 14.8809C99.1435 14.6855 99.4926 14.5439 99.8832 14.4561C100.279 14.3633 100.689 14.3169 101.114 14.3169C101.446 14.3169 101.783 14.3438 102.124 14.3975C102.466 14.4463 102.803 14.5195 103.135 14.6172V16.4043C102.842 16.2334 102.527 16.1064 102.19 16.0234C101.858 15.9355 101.531 15.8916 101.209 15.8916C101.058 15.8916 100.914 15.9062 100.777 15.9355C100.645 15.96 100.528 15.999 100.425 16.0527C100.323 16.1016 100.242 16.1675 100.184 16.2505C100.125 16.3286 100.096 16.4189 100.096 16.5215C100.096 16.6582 100.14 16.7754 100.227 16.873C100.315 16.9707 100.43 17.0562 100.572 17.1294C100.713 17.1978 100.87 17.2612 101.04 17.3198C101.216 17.3735 101.39 17.4297 101.56 17.4883C101.868 17.5957 102.146 17.7129 102.395 17.8398C102.644 17.9668 102.857 18.1157 103.033 18.2866C103.213 18.4575 103.35 18.6577 103.443 18.8872C103.54 19.1167 103.589 19.3901 103.589 19.7075C103.589 20.1519 103.492 20.5327 103.296 20.8501C103.106 21.1626 102.85 21.4189 102.527 21.6191C102.21 21.8145 101.841 21.9561 101.421 22.0439C101.006 22.1367 100.574 22.1831 100.125 22.1831C99.2997 22.1831 98.5356 22.0562 97.8325 21.8022Z" fill="white"/>
<path d="M28.7505 22.4575C27.8955 22.675 27.3668 22.4669 26.8924 21.7544C25.8274 20.1587 24.6518 18.6362 23.5174 17.0856C23.3712 16.885 23.2193 16.6881 23.0299 16.4387C21.6874 18.25 20.3468 19.975 19.0887 21.7694C18.6387 22.4106 18.1662 22.69 17.3262 22.4631L22.3737 15.6887L17.6749 9.57062C18.483 9.41312 19.0418 9.49375 19.5368 10.2175C20.6299 11.815 21.8355 13.3356 23.0374 14.9444C24.2468 13.3412 25.4374 11.8187 26.5624 10.2362C27.0143 9.595 27.4999 9.35125 28.3118 9.5875C27.6968 10.4031 27.0949 11.2056 26.4893 12.0025C25.6718 13.0769 24.8693 14.1644 24.0218 15.2162C23.7199 15.5912 23.7687 15.835 24.0387 16.1894C25.6062 18.25 27.1549 20.3312 28.7505 22.4575ZM5.24928 15.5762C5.38428 14.8994 5.47428 14.2094 5.66178 13.5456C6.78678 9.5275 11.3993 7.85687 14.568 10.3469C16.4243 11.8075 16.8855 13.8662 16.7937 16.1875H6.33115C6.17365 20.3519 9.17178 22.8662 12.993 21.5837C14.3337 21.1337 15.123 20.0837 15.5187 18.7712C15.7193 18.1131 16.0512 18.01 16.6699 18.1975C16.353 19.84 15.6349 21.2125 14.1349 22.0712C11.8849 23.3575 8.67303 22.9412 6.98365 21.1544C5.98615 20.1044 5.5624 18.7975 5.3749 17.3856C5.34678 17.1606 5.28865 16.9394 5.24365 16.7162C5.2474 16.3362 5.24928 15.9562 5.24928 15.5762V15.5762ZM6.3499 15.2969H15.8055C15.7437 12.2856 13.8687 10.1462 11.3055 10.1275C8.49303 10.105 6.47178 12.1937 6.3499 15.2969V15.2969Z" fill="black"/>
</svg>
