<svg width="73" height="32" viewBox="0 0 73 32" fill="none" xmlns="http://www.w3.org/2000/svg">
<path d="M68 0H31V32H68C70.7614 32 73 29.7614 73 27V5C73 2.23858 70.7614 0 68 0Z" fill="#0F1418"/>
<path d="M67 0H31V32H67C69.7614 32 72 29.7614 72 27V5C72 2.23858 69.7614 0 67 0Z" fill="#0F1418"/>
<path d="M5 0.5H30.5V31.5H5C2.51472 31.5 0.5 29.4853 0.5 27V5C0.5 2.51472 2.51472 0.5 5 0.5Z" fill="white" stroke="#1C2125"/>
<path d="M5 0.5H30.5V31.5H5C2.51472 31.5 0.5 29.4853 0.5 27V5C0.5 2.51472 2.51472 0.5 5 0.5Z" fill="white" stroke="#1C2125"/>
<path d="M64 0H31V32H64C66.7614 32 69 29.7614 69 27V5C69 2.23858 66.7614 0 64 0Z" fill="#0F1418"/>
<path d="M63 0H31V32H63C65.7614 32 68 29.7614 68 27V5C68 2.23858 65.7614 0 63 0Z" fill="#0F1418"/>
<path d="M5 0.5H30.5V31.5H5C2.51472 31.5 0.5 29.4853 0.5 27V5C0.5 2.51472 2.51472 0.5 5 0.5Z" fill="white" stroke="#1C2125"/>
<path d="M5 0.5H30.5V31.5H5C2.51472 31.5 0.5 29.4853 0.5 27V5C0.5 2.51472 2.51472 0.5 5 0.5Z" fill="white" stroke="#1C2125"/>
<path d="M51.756 21.2969C50.7306 21.8877 49.4562 22.1831 47.9328 22.1831C46.2433 22.1831 44.9103 21.7168 43.9338 20.7842C42.9621 19.8467 42.4762 18.5576 42.4762 16.917C42.4762 15.2666 43.0085 13.9214 44.0729 12.8813C45.1374 11.8413 46.5534 11.3213 48.321 11.3213C49.4343 11.3213 50.4157 11.4751 51.2653 11.7827V14.002C50.4548 13.5332 49.4636 13.2988 48.2917 13.2988C47.3102 13.2988 46.5095 13.6187 45.8893 14.2583C45.2741 14.8931 44.9665 15.7427 44.9665 16.8071C44.9665 17.8862 45.2424 18.7212 45.7941 19.312C46.3508 19.9028 47.1003 20.1982 48.0427 20.1982C48.6091 20.1982 49.0583 20.1177 49.3903 19.9565V17.9058H47.2883V16.0161H51.756V21.2969ZM55.188 13.3135C54.7974 13.3135 54.4775 13.1987 54.2285 12.9692C53.9795 12.7349 53.855 12.4492 53.855 12.1123C53.855 11.7656 53.9795 11.4824 54.2285 11.2627C54.4775 11.043 54.7974 10.9331 55.188 10.9331C55.5835 10.9331 55.9033 11.043 56.1475 11.2627C56.3965 11.4824 56.521 11.7656 56.521 12.1123C56.521 12.4639 56.3965 12.752 56.1475 12.9766C55.9033 13.2012 55.5835 13.3135 55.188 13.3135ZM56.3306 22H54.0161V14.5H56.3306V22ZM62.9925 21.9121C62.6507 22.0928 62.1356 22.1831 61.4471 22.1831C59.8162 22.1831 59.0008 21.3359 59.0008 19.6416V16.2065H57.785V14.5H59.0008V12.8813L61.3079 12.2222V14.5H62.9925V16.2065H61.3079V19.2388C61.3079 20.02 61.618 20.4106 62.2381 20.4106C62.4822 20.4106 62.7337 20.3398 62.9925 20.1982V21.9121Z" fill="white"/>
<path d="M26.3882 15.9459L16.0539 5.61199C15.4592 5.01687 14.4939 5.01687 13.8983 5.61199L11.7525 7.75812L14.4746 10.4802C15.1074 10.2667 15.8327 10.4099 16.3369 10.9141C16.8437 11.4215 16.9858 12.1529 16.767 12.7878L19.3905 15.4115C20.0252 15.1927 20.7578 15.3341 21.2644 15.8418C21.9731 16.55 21.9731 17.6981 21.2644 18.4066C21.096 18.5751 20.896 18.7088 20.6759 18.8C20.4558 18.8912 20.2198 18.9381 19.9816 18.9381C19.7433 18.9381 19.5074 18.8912 19.2873 18.8C19.0672 18.7088 18.8672 18.5751 18.6988 18.4066C18.4458 18.1534 18.2733 17.831 18.203 17.48C18.1328 17.129 18.168 16.765 18.3041 16.4339L15.8576 13.9874L15.8573 20.4264C16.0348 20.5138 16.1968 20.6295 16.3371 20.7691C17.0454 21.4773 17.0454 22.625 16.3371 23.3347C15.6285 24.0429 14.4801 24.0429 13.7723 23.3347C13.0639 22.6252 13.0639 21.4775 13.7723 20.7691C13.942 20.5991 14.1438 20.4646 14.3661 20.3735V13.8749C14.1436 13.784 13.9417 13.6494 13.7723 13.4791C13.2356 12.9429 13.1064 12.1554 13.3817 11.4961L10.698 8.81243L3.612 15.8981C3.32612 16.184 3.16553 16.5718 3.16553 16.9762C3.16553 17.3805 3.32612 17.7683 3.612 18.0543L13.9464 28.3882C14.5416 28.9833 15.5064 28.9833 16.1025 28.3882L26.3884 18.1023C26.6742 17.8163 26.8347 17.4284 26.8347 17.024C26.8347 16.6197 26.6741 16.2319 26.3882 15.9459V15.9459Z" fill="#F34F29"/>
</svg>
