<svg width="107" height="32" viewBox="0 0 107 32" fill="none" xmlns="http://www.w3.org/2000/svg">
<path d="M102 0H31V32H102C104.761 32 107 29.7614 107 27V5C107 2.23858 104.761 0 102 0Z" fill="#0F1418"/>
<path d="M102 0H31V32H102C104.761 32 107 29.7614 107 27V5C107 2.23858 104.761 0 102 0Z" fill="#0F1418"/>
<path d="M5 0.5H30.5V31.5H5C2.51472 31.5 0.5 29.4853 0.5 27V5C0.5 2.51472 2.51472 0.5 5 0.5Z" fill="white" stroke="#1C2125"/>
<path d="M5 0.5H30.5V31.5H5C2.51472 31.5 0.5 29.4853 0.5 27V5C0.5 2.51472 2.51472 0.5 5 0.5Z" fill="white" stroke="#1C2125"/>
<path d="M54.5879 22H52.2002L47.8716 15.4009C47.6177 15.0151 47.4419 14.7246 47.3443 14.5293H47.315C47.354 14.9004 47.3736 15.4668 47.3736 16.2285V22H45.1397V11.4971H47.6885L51.856 17.8911C52.0464 18.1792 52.2222 18.4648 52.3833 18.748H52.4126C52.3736 18.5039 52.354 18.0229 52.354 17.3052V11.4971H54.5879V22ZM63.9452 18.9092H59.0526C59.1307 19.998 59.8168 20.5425 61.1107 20.5425C61.9359 20.5425 62.661 20.3472 63.286 19.9565V21.6265C62.5926 21.9976 61.6918 22.1831 60.5834 22.1831C59.3724 22.1831 58.4325 21.8486 57.7635 21.1797C57.0946 20.5059 56.7601 19.5684 56.7601 18.3672C56.7601 17.1221 57.1214 16.1357 57.8441 15.4082C58.5668 14.6807 59.4554 14.3169 60.5101 14.3169C61.6039 14.3169 62.4486 14.6416 63.0443 15.291C63.6449 15.9404 63.9452 16.8218 63.9452 17.9351V18.9092ZM61.7992 17.4883C61.7992 16.4141 61.3646 15.877 60.4955 15.877C60.1244 15.877 59.8021 16.0308 59.5287 16.3384C59.2601 16.646 59.0965 17.0293 59.0379 17.4883H61.7992ZM72.7458 14.5L70.2702 18.1328L72.7311 22H70.0651L68.9811 19.9785C68.8932 19.8174 68.7883 19.5903 68.6662 19.2974H68.6369C68.5637 19.5024 68.4636 19.7222 68.3366 19.9565L67.2453 22H64.5866L67.1208 18.2646L64.7404 14.5H67.4211L68.4904 16.6021C68.632 16.8804 68.7321 17.1147 68.7907 17.3052H68.82C68.8981 17.0757 69.0031 16.8364 69.1349 16.5874L70.2262 14.5H72.7458ZM78.5068 21.9121C78.165 22.0928 77.6499 22.1831 76.9614 22.1831C75.3306 22.1831 74.5151 21.3359 74.5151 19.6416V16.2065H73.2993V14.5H74.5151V12.8813L76.8223 12.2222V14.5H78.5068V16.2065H76.8223V19.2388C76.8223 20.02 77.1323 20.4106 77.7524 20.4106C77.9966 20.4106 78.248 20.3398 78.5068 20.1982V21.9121ZM81.0306 22.1831C80.6497 22.1831 80.3323 22.0659 80.0784 21.8315C79.8245 21.5972 79.6976 21.3091 79.6976 20.9673C79.6976 20.6157 79.827 20.3276 80.0858 20.103C80.3494 19.8784 80.6766 19.7661 81.0672 19.7661C81.4627 19.7661 81.785 19.8809 82.034 20.1104C82.2879 20.335 82.4149 20.6206 82.4149 20.9673C82.4149 21.3237 82.2855 21.6167 82.0267 21.8462C81.7728 22.0708 81.4407 22.1831 81.0306 22.1831ZM85.422 13.3135C85.0314 13.3135 84.7116 13.1987 84.4625 12.9692C84.2135 12.7349 84.089 12.4492 84.089 12.1123C84.089 11.7656 84.2135 11.4824 84.4625 11.2627C84.7116 11.043 85.0314 10.9331 85.422 10.9331C85.8175 10.9331 86.1373 11.043 86.3815 11.2627C86.6305 11.4824 86.755 11.7656 86.755 12.1123C86.755 12.4639 86.6305 12.752 86.3815 12.9766C86.1373 13.2012 85.8175 13.3135 85.422 13.3135ZM86.5646 21.8682C86.5646 22.9766 86.2936 23.8628 85.7516 24.5269C85.2096 25.1909 84.4284 25.5229 83.4079 25.5229C83.0709 25.5229 82.7023 25.4497 82.3019 25.3032V23.4868C82.6242 23.6675 82.9098 23.7578 83.1588 23.7578C83.8864 23.7578 84.2501 23.1865 84.2501 22.0439V14.5H86.5646V21.8682ZM88.2021 21.8022V19.9272C88.583 20.1567 88.9614 20.3276 89.3374 20.4399C89.7182 20.5522 90.0771 20.6084 90.414 20.6084C90.8242 20.6084 91.1464 20.5522 91.3808 20.4399C91.6201 20.3276 91.7397 20.1567 91.7397 19.9272C91.7397 19.7808 91.686 19.6587 91.5786 19.561C91.4712 19.4634 91.332 19.3779 91.1611 19.3047C90.9951 19.2314 90.812 19.1655 90.6118 19.1069C90.4116 19.0483 90.2187 18.9824 90.0332 18.9092C89.7353 18.7969 89.4716 18.6772 89.2421 18.5503C89.0175 18.4185 88.8271 18.2671 88.6709 18.0962C88.5195 17.9253 88.4023 17.7275 88.3193 17.5029C88.2412 17.2783 88.2021 17.0122 88.2021 16.7046C88.2021 16.2847 88.2924 15.9233 88.4731 15.6206C88.6587 15.3179 88.9028 15.0713 89.2055 14.8809C89.5131 14.6855 89.8623 14.5439 90.2529 14.4561C90.6484 14.3633 91.0586 14.3169 91.4834 14.3169C91.8154 14.3169 92.1523 14.3438 92.4941 14.3975C92.8359 14.4463 93.1728 14.5195 93.5048 14.6172V16.4043C93.2119 16.2334 92.8969 16.1064 92.56 16.0234C92.228 15.9355 91.9008 15.8916 91.5786 15.8916C91.4272 15.8916 91.2832 15.9062 91.1464 15.9355C91.0146 15.96 90.8974 15.999 90.7949 16.0527C90.6923 16.1016 90.6118 16.1675 90.5532 16.2505C90.4946 16.3286 90.4653 16.4189 90.4653 16.5215C90.4653 16.6582 90.5092 16.7754 90.5971 16.873C90.685 16.9707 90.7998 17.0562 90.9414 17.1294C91.083 17.1978 91.2392 17.2612 91.4101 17.3198C91.5859 17.3735 91.7592 17.4297 91.9301 17.4883C92.2378 17.5957 92.5161 17.7129 92.7651 17.8398C93.0141 17.9668 93.2265 18.1157 93.4023 18.2866C93.583 18.4575 93.7197 18.6577 93.8125 18.8872C93.9101 19.1167 93.9589 19.3901 93.9589 19.7075C93.9589 20.1519 93.8613 20.5327 93.666 20.8501C93.4755 21.1626 93.2192 21.4189 92.8969 21.6191C92.5796 21.8145 92.2109 21.9561 91.791 22.0439C91.3759 22.1367 90.9438 22.1831 90.4946 22.1831C89.6694 22.1831 88.9052 22.0562 88.2021 21.8022Z" fill="white"/>
<path d="M54.5879 22H52.2002L47.8716 15.4009C47.6177 15.0151 47.4419 14.7246 47.3443 14.5293H47.315C47.354 14.9004 47.3736 15.4668 47.3736 16.2285V22H45.1397V11.4971H47.6885L51.856 17.8911C52.0464 18.1792 52.2222 18.4648 52.3833 18.748H52.4126C52.3736 18.5039 52.354 18.0229 52.354 17.3052V11.4971H54.5879V22ZM63.9452 18.9092H59.0526C59.1307 19.998 59.8168 20.5425 61.1107 20.5425C61.9359 20.5425 62.661 20.3472 63.286 19.9565V21.6265C62.5926 21.9976 61.6918 22.1831 60.5834 22.1831C59.3724 22.1831 58.4325 21.8486 57.7635 21.1797C57.0946 20.5059 56.7601 19.5684 56.7601 18.3672C56.7601 17.1221 57.1214 16.1357 57.8441 15.4082C58.5668 14.6807 59.4554 14.3169 60.5101 14.3169C61.6039 14.3169 62.4486 14.6416 63.0443 15.291C63.6449 15.9404 63.9452 16.8218 63.9452 17.9351V18.9092ZM61.7992 17.4883C61.7992 16.4141 61.3646 15.877 60.4955 15.877C60.1244 15.877 59.8021 16.0308 59.5287 16.3384C59.2601 16.646 59.0965 17.0293 59.0379 17.4883H61.7992ZM72.7458 14.5L70.2702 18.1328L72.7311 22H70.0651L68.9811 19.9785C68.8932 19.8174 68.7883 19.5903 68.6662 19.2974H68.6369C68.5637 19.5024 68.4636 19.7222 68.3366 19.9565L67.2453 22H64.5866L67.1208 18.2646L64.7404 14.5H67.4211L68.4904 16.6021C68.632 16.8804 68.7321 17.1147 68.7907 17.3052H68.82C68.8981 17.0757 69.0031 16.8364 69.1349 16.5874L70.2262 14.5H72.7458ZM78.5068 21.9121C78.165 22.0928 77.6499 22.1831 76.9614 22.1831C75.3306 22.1831 74.5151 21.3359 74.5151 19.6416V16.2065H73.2993V14.5H74.5151V12.8813L76.8223 12.2222V14.5H78.5068V16.2065H76.8223V19.2388C76.8223 20.02 77.1323 20.4106 77.7524 20.4106C77.9966 20.4106 78.248 20.3398 78.5068 20.1982V21.9121ZM81.0306 22.1831C80.6497 22.1831 80.3323 22.0659 80.0784 21.8315C79.8245 21.5972 79.6976 21.3091 79.6976 20.9673C79.6976 20.6157 79.827 20.3276 80.0858 20.103C80.3494 19.8784 80.6766 19.7661 81.0672 19.7661C81.4627 19.7661 81.785 19.8809 82.034 20.1104C82.2879 20.335 82.4149 20.6206 82.4149 20.9673C82.4149 21.3237 82.2855 21.6167 82.0267 21.8462C81.7728 22.0708 81.4407 22.1831 81.0306 22.1831ZM85.422 13.3135C85.0314 13.3135 84.7116 13.1987 84.4625 12.9692C84.2135 12.7349 84.089 12.4492 84.089 12.1123C84.089 11.7656 84.2135 11.4824 84.4625 11.2627C84.7116 11.043 85.0314 10.9331 85.422 10.9331C85.8175 10.9331 86.1373 11.043 86.3815 11.2627C86.6305 11.4824 86.755 11.7656 86.755 12.1123C86.755 12.4639 86.6305 12.752 86.3815 12.9766C86.1373 13.2012 85.8175 13.3135 85.422 13.3135ZM86.5646 21.8682C86.5646 22.9766 86.2936 23.8628 85.7516 24.5269C85.2096 25.1909 84.4284 25.5229 83.4079 25.5229C83.0709 25.5229 82.7023 25.4497 82.3019 25.3032V23.4868C82.6242 23.6675 82.9098 23.7578 83.1588 23.7578C83.8864 23.7578 84.2501 23.1865 84.2501 22.0439V14.5H86.5646V21.8682ZM88.2021 21.8022V19.9272C88.583 20.1567 88.9614 20.3276 89.3374 20.4399C89.7182 20.5522 90.0771 20.6084 90.414 20.6084C90.8242 20.6084 91.1464 20.5522 91.3808 20.4399C91.6201 20.3276 91.7397 20.1567 91.7397 19.9272C91.7397 19.7808 91.686 19.6587 91.5786 19.561C91.4712 19.4634 91.332 19.3779 91.1611 19.3047C90.9951 19.2314 90.812 19.1655 90.6118 19.1069C90.4116 19.0483 90.2187 18.9824 90.0332 18.9092C89.7353 18.7969 89.4716 18.6772 89.2421 18.5503C89.0175 18.4185 88.8271 18.2671 88.6709 18.0962C88.5195 17.9253 88.4023 17.7275 88.3193 17.5029C88.2412 17.2783 88.2021 17.0122 88.2021 16.7046C88.2021 16.2847 88.2924 15.9233 88.4731 15.6206C88.6587 15.3179 88.9028 15.0713 89.2055 14.8809C89.5131 14.6855 89.8623 14.5439 90.2529 14.4561C90.6484 14.3633 91.0586 14.3169 91.4834 14.3169C91.8154 14.3169 92.1523 14.3438 92.4941 14.3975C92.8359 14.4463 93.1728 14.5195 93.5048 14.6172V16.4043C93.2119 16.2334 92.8969 16.1064 92.56 16.0234C92.228 15.9355 91.9008 15.8916 91.5786 15.8916C91.4272 15.8916 91.2832 15.9062 91.1464 15.9355C91.0146 15.96 90.8974 15.999 90.7949 16.0527C90.6923 16.1016 90.6118 16.1675 90.5532 16.2505C90.4946 16.3286 90.4653 16.4189 90.4653 16.5215C90.4653 16.6582 90.5092 16.7754 90.5971 16.873C90.685 16.9707 90.7998 17.0562 90.9414 17.1294C91.083 17.1978 91.2392 17.2612 91.4101 17.3198C91.5859 17.3735 91.7592 17.4297 91.9301 17.4883C92.2378 17.5957 92.5161 17.7129 92.7651 17.8398C93.0141 17.9668 93.2265 18.1157 93.4023 18.2866C93.583 18.4575 93.7197 18.6577 93.8125 18.8872C93.9101 19.1167 93.9589 19.3901 93.9589 19.7075C93.9589 20.1519 93.8613 20.5327 93.666 20.8501C93.4755 21.1626 93.2192 21.4189 92.8969 21.6191C92.5796 21.8145 92.2109 21.9561 91.791 22.0439C91.3759 22.1367 90.9438 22.1831 90.4946 22.1831C89.6694 22.1831 88.9052 22.0562 88.2021 21.8022Z" fill="white"/>
<path d="M102 0H31V32H102C104.761 32 107 29.7614 107 27V5C107 2.23858 104.761 0 102 0Z" fill="#0F1418"/>
<path d="M102 0H31V32H102C104.761 32 107 29.7614 107 27V5C107 2.23858 104.761 0 102 0Z" fill="#0F1418"/>
<path d="M5 0.5H30.5V31.5H5C2.51472 31.5 0.5 29.4853 0.5 27V5C0.5 2.51472 2.51472 0.5 5 0.5Z" fill="white" stroke="#1C2125"/>
<path d="M5 0.5H30.5V31.5H5C2.51472 31.5 0.5 29.4853 0.5 27V5C0.5 2.51472 2.51472 0.5 5 0.5Z" fill="white" stroke="#1C2125"/>
<path d="M46.8124 21H44.6317V15.1348C44.6317 14.5013 44.6591 13.8018 44.7138 13.0361H44.6591C44.5452 13.6377 44.4426 14.0706 44.3515 14.335L42.0546 21H40.2499L37.912 14.4033C37.8482 14.2256 37.7457 13.7699 37.6044 13.0361H37.5429C37.6021 14.0023 37.6317 14.8499 37.6317 15.5791V21H35.6425V11.1973H38.8759L40.8788 17.0078C41.0383 17.4727 41.1545 17.9398 41.2274 18.4092H41.2685C41.3915 17.8669 41.5214 17.3952 41.6581 16.9941L43.661 11.1973H46.8124V21ZM52.579 21.1709C51.4124 21.1709 50.4941 20.8451 49.8242 20.1934C49.1588 19.5371 48.8261 18.6484 48.8261 17.5273C48.8261 16.3698 49.1725 15.4652 49.8652 14.8135C50.5579 14.1572 51.4944 13.8291 52.6747 13.8291C53.8369 13.8291 54.7483 14.1572 55.4091 14.8135C56.0699 15.4652 56.4003 16.3288 56.4003 17.4043C56.4003 18.5664 56.0585 19.4847 55.3749 20.1592C54.6959 20.8337 53.7639 21.1709 52.579 21.1709ZM52.6337 15.4834C52.1233 15.4834 51.7268 15.6589 51.4443 16.0098C51.1617 16.3607 51.0204 16.8574 51.0204 17.5C51.0204 18.8444 51.5628 19.5166 52.6474 19.5166C53.6819 19.5166 54.1992 18.8262 54.1992 17.4453C54.1992 16.1374 53.6773 15.4834 52.6337 15.4834ZM64.7304 21H62.5771V17.1104C62.5771 16.0257 62.1897 15.4834 61.415 15.4834C61.0413 15.4834 60.7337 15.627 60.4922 15.9141C60.2506 16.2012 60.1299 16.5658 60.1299 17.0078V21H57.9697V14H60.1299V15.1074H60.1572C60.6722 14.2552 61.4218 13.8291 62.4062 13.8291C63.9557 13.8291 64.7304 14.7907 64.7304 16.7139V21ZM73.4775 20.2002C73.4775 21.499 73.1016 22.5039 72.3496 23.2148C71.5977 23.9303 70.5085 24.2881 69.082 24.2881C68.1387 24.2881 67.3913 24.1536 66.8398 23.8848V22.0664C67.5599 22.4857 68.2868 22.6953 69.0205 22.6953C69.7497 22.6953 70.3148 22.5016 70.7158 22.1143C71.1169 21.7314 71.3174 21.2096 71.3174 20.5488V19.9951H71.29C70.7979 20.779 70.071 21.1709 69.1094 21.1709C68.2161 21.1709 67.5075 20.8564 66.9834 20.2275C66.4593 19.5986 66.1973 18.7555 66.1973 17.6982C66.1973 16.5133 66.4889 15.5723 67.0723 14.875C67.6556 14.1777 68.4235 13.8291 69.376 13.8291C70.2282 13.8291 70.8662 14.1572 71.29 14.8135H71.3174V14H73.4775V20.2002ZM71.3447 17.6367V17.083C71.3447 16.641 71.2126 16.265 70.9482 15.9551C70.6885 15.6406 70.349 15.4834 69.9297 15.4834C69.4512 15.4834 69.0752 15.6702 68.8018 16.0439C68.5283 16.4176 68.3916 16.944 68.3916 17.623C68.3916 18.2064 68.5215 18.6689 68.7812 19.0107C69.041 19.348 69.3965 19.5166 69.8477 19.5166C70.2943 19.5166 70.6543 19.3457 70.9277 19.0039C71.2057 18.6576 71.3447 18.2018 71.3447 17.6367ZM78.7862 21.1709C77.6195 21.1709 76.7012 20.8451 76.0313 20.1934C75.3659 19.5371 75.0332 18.6484 75.0332 17.5273C75.0332 16.3698 75.3796 15.4652 76.0723 14.8135C76.765 14.1572 77.7015 13.8291 78.8819 13.8291C80.044 13.8291 80.9554 14.1572 81.6162 14.8135C82.277 15.4652 82.6075 16.3288 82.6075 17.4043C82.6075 18.5664 82.2657 19.4847 81.5821 20.1592C80.903 20.8337 79.9711 21.1709 78.7862 21.1709ZM78.8409 15.4834C78.3304 15.4834 77.9339 15.6589 77.6514 16.0098C77.3688 16.3607 77.2276 16.8574 77.2276 17.5C77.2276 18.8444 77.7699 19.5166 78.8545 19.5166C79.889 19.5166 80.4063 18.8262 80.4063 17.4453C80.4063 16.1374 79.8845 15.4834 78.8409 15.4834ZM84.6348 21V11.1973H88.1075C91.5893 11.1973 93.3301 12.79 93.3301 15.9756C93.3301 17.5023 92.8539 18.7214 91.9014 19.6328C90.9535 20.5443 89.6889 21 88.1075 21H84.6348ZM86.8428 12.9951V19.209H87.9366C88.8936 19.209 89.6433 18.9219 90.1856 18.3477C90.7325 17.7734 91.0059 16.9919 91.0059 16.0029C91.0059 15.0687 90.7348 14.335 90.1924 13.8018C89.6547 13.264 88.8982 12.9951 87.9229 12.9951H86.8428ZM95.6173 21V11.1973H99.1856C100.279 11.1973 101.12 11.3978 101.708 11.7988C102.296 12.1999 102.59 12.765 102.59 13.4941C102.59 14.0228 102.41 14.4854 102.05 14.8818C101.694 15.2783 101.239 15.554 100.683 15.709V15.7363C101.38 15.8229 101.936 16.0804 102.351 16.5088C102.77 16.9372 102.98 17.459 102.98 18.0742C102.98 18.972 102.658 19.6852 102.016 20.2139C101.373 20.738 100.496 21 99.3839 21H95.6173ZM97.8253 12.8242V15.1484H98.796C99.2517 15.1484 99.6095 15.0391 99.8692 14.8203C100.134 14.597 100.266 14.2917 100.266 13.9043C100.266 13.1842 99.728 12.8242 98.6524 12.8242H97.8253ZM97.8253 16.7891V19.373H99.0216C99.532 19.373 99.9308 19.2546 100.218 19.0176C100.51 18.7806 100.655 18.457 100.655 18.0469C100.655 17.6549 100.512 17.3473 100.225 17.124C99.9421 16.9007 99.5457 16.7891 99.0352 16.7891H97.8253Z" fill="white"/>
<path fill-rule="evenodd" clip-rule="evenodd" d="M19.5071 12.0272C19.808 12.8978 20.0248 13.7865 20.096 14.7077C20.1845 15.8505 20.144 16.9853 19.9031 18.1093C19.8965 18.1403 19.8827 18.1693 19.8723 18.1993C19.7968 18.1995 19.7197 18.1902 19.6458 18.2016C19.0217 18.2997 18.398 18.4013 17.7744 18.5023C17.1298 18.6068 16.4842 18.7071 15.8407 18.8187C15.6127 18.858 15.3305 18.811 15.2385 19.1263C15.2358 19.135 15.2096 19.1365 15.1944 19.1413L15.2255 17.2568L15.1938 12.7095L15.4942 12.658C15.9855 12.5775 16.4767 12.496 16.9683 12.4178C17.555 12.3246 18.1423 12.234 18.7293 12.1431C18.9883 12.1028 19.2476 12.0658 19.5071 12.0272V12.0272Z" fill="#439934"/>
<path fill-rule="evenodd" clip-rule="evenodd" d="M14.5743 24.6351C14.2574 24.3626 13.9295 24.1022 13.6257 23.8157C11.9913 22.2741 10.7958 20.4596 10.207 18.2721C10.0448 17.67 9.93664 17.0582 9.90195 16.4361C9.87758 16.0007 9.84233 15.5614 9.87308 15.1283C9.95502 13.9763 10.1215 12.8353 10.4594 11.7257L10.478 11.6998C10.5108 11.7435 10.558 11.7821 10.5747 11.8315C10.9045 12.8027 11.2319 13.7747 11.5576 14.7473C12.581 17.8035 13.603 20.8605 14.6281 23.916C14.6481 23.9756 14.7001 24.0246 14.7374 24.0784L14.5743 24.6351V24.6351Z" fill="#45A538"/>
<path fill-rule="evenodd" clip-rule="evenodd" d="M19.5072 12.0273C19.2477 12.0659 18.9882 12.1028 18.7292 12.1428C18.1422 12.2337 17.5549 12.3243 16.9682 12.4174C16.4766 12.4956 15.9854 12.5772 15.4941 12.6576L15.1937 12.7092L15.1915 12.5133C15.1816 12.3522 15.1645 12.1913 15.1626 12.0303C15.1497 11.0031 15.1416 9.976 15.1289 8.94888C15.121 8.30594 15.1092 7.66319 15.0961 7.02044C15.088 6.62106 15.0794 6.2215 15.0614 5.82269C15.0516 5.60838 15.0171 5.39519 15.0031 5.18088C14.9952 5.05769 15.0061 4.93356 15.0085 4.80981C15.1617 5.10663 15.3115 5.40569 15.469 5.70025C15.7178 6.166 16.1142 6.50913 16.471 6.88356C17.8816 8.36331 18.883 10.0838 19.5072 12.0273V12.0273Z" fill="#46A037"/>
<path fill-rule="evenodd" clip-rule="evenodd" d="M15.1943 19.1412C15.2095 19.1363 15.2359 19.1348 15.2383 19.1262C15.3304 18.8108 15.6126 18.8579 15.8406 18.8185C16.4841 18.7071 17.1296 18.6066 17.7743 18.5022C18.3979 18.4011 19.0215 18.2995 19.6457 18.2015C19.7196 18.1898 19.7966 18.1994 19.8722 18.1992C19.7556 18.6155 19.6637 19.0407 19.5158 19.4455C19.3478 19.9047 19.1445 20.3528 18.9287 20.7921C18.6056 21.4474 18.2057 22.0619 17.7375 22.6227C17.3777 23.0555 16.9766 23.4554 16.5746 23.8505C16.3525 24.0689 16.0905 24.2468 15.8468 24.4431L15.7836 24.4L15.556 24.2054L15.3205 23.6892C15.1596 23.087 15.0718 22.4677 15.0591 21.8446L15.0634 21.7394L15.0955 21.2845C15.1061 21.1293 15.1204 20.9742 15.127 20.8186C15.1511 20.2595 15.1721 19.7003 15.1943 19.1412V19.1412Z" fill="#409433"/>
<path fill-rule="evenodd" clip-rule="evenodd" d="M15.1942 19.1412C15.1721 19.7003 15.1511 20.2594 15.1272 20.8187C15.1207 20.9744 15.1064 21.1294 15.0957 21.2847L14.9523 21.3389C14.6337 20.401 14.315 19.4731 14.0032 18.5427C13.4876 17.0035 12.9781 15.4619 12.4632 13.9223C12.0474 12.6796 11.6286 11.438 11.207 10.1972C11.1873 10.1391 11.1307 10.0937 11.0913 10.0424L12.0093 8.35449C12.0408 8.40924 12.0824 8.46043 12.1023 8.5193C12.5275 9.77595 12.9505 11.0333 13.3713 12.2914C13.9181 13.9283 14.4614 15.5665 15.0078 17.2036C15.0296 17.269 15.0656 17.3294 15.0999 17.4027L15.2255 17.2564L15.1942 19.1412V19.1412Z" fill="#4FAA41"/>
<path fill-rule="evenodd" clip-rule="evenodd" d="M11.0915 10.0425C11.1309 10.0939 11.1873 10.1392 11.2072 10.1974C11.6289 11.4381 12.0476 12.6798 12.4635 13.9224C12.9783 15.462 13.4878 17.0036 14.0034 18.5428C14.315 19.473 14.6338 20.4011 14.9525 21.339L15.096 21.2848L15.0639 21.7397L15.0348 21.8445C14.985 22.3425 14.943 22.8416 14.8822 23.3385C14.8517 23.5875 14.7868 23.832 14.7375 24.0785C14.7003 24.0247 14.6482 23.9758 14.6282 23.9162C13.6031 20.8605 12.581 17.8037 11.5577 14.7474C11.2321 13.7748 10.9045 12.8029 10.5748 11.8316C10.5581 11.7823 10.511 11.7437 10.478 11.7L11.0915 10.0425V10.0425Z" fill="#4AA73C"/>
<path fill-rule="evenodd" clip-rule="evenodd" d="M15.2252 17.2566L15.0996 17.4028C15.0653 17.3295 15.0293 17.269 15.0075 17.2037C14.4613 15.5666 13.9178 13.9285 13.371 12.2916C12.9502 11.0335 12.5272 9.7761 12.102 8.51946C12.0823 8.46058 12.0407 8.40921 12.009 8.35464L13.1443 6.86121C13.1802 6.90902 13.2312 6.95158 13.2497 7.00539C13.5649 7.92808 13.8773 8.85189 14.1878 9.77627C14.4778 10.6395 14.7636 11.5041 15.057 12.3662C15.0767 12.424 15.1452 12.4648 15.1909 12.5136L15.1932 12.7095C15.204 14.2249 15.2147 15.7408 15.2252 17.2566V17.2566Z" fill="#57AE47"/>
<path fill-rule="evenodd" clip-rule="evenodd" d="M15.1916 12.5133C15.1458 12.4646 15.0774 12.4237 15.0577 12.3659C14.7643 11.5038 14.4785 10.6393 14.1885 9.77601C13.878 8.85163 13.5656 7.92801 13.2504 7.00513C13.2318 6.95132 13.1808 6.90876 13.145 6.86094C13.5142 6.49944 13.872 6.12501 14.256 5.78019C14.5974 5.47382 14.8719 5.14532 14.8845 4.66119C14.885 4.64113 14.8955 4.62107 14.9116 4.56482L15.009 4.80969C15.0065 4.93363 14.9955 5.05757 15.0035 5.18076C15.0176 5.39507 15.0521 5.60826 15.0618 5.82257C15.0798 6.22138 15.0885 6.62094 15.0965 7.02032C15.1095 7.66307 15.1213 8.30582 15.1293 8.94876C15.1419 9.97588 15.1501 11.003 15.1631 12.0301C15.1646 12.1916 15.1815 12.3523 15.1916 12.5133V12.5133Z" fill="#60B24F"/>
<path fill-rule="evenodd" clip-rule="evenodd" d="M14.7371 24.0785C14.7864 23.8319 14.8513 23.5872 14.8819 23.3384C14.9428 22.8417 14.9846 22.3424 15.0345 21.8444L15.0469 21.8425L15.0592 21.8446C15.072 22.4677 15.1597 23.0871 15.3206 23.6892C15.2876 23.7327 15.2409 23.7715 15.2235 23.8207C15.0872 24.205 14.9587 24.5924 14.8217 24.9768C14.8029 25.0293 14.7508 25.0702 14.714 25.1163L14.574 24.6352L14.7371 24.0785V24.0785Z" fill="#A9AA88"/>
<path fill-rule="evenodd" clip-rule="evenodd" d="M14.7141 25.1164C14.7509 25.0703 14.8032 25.0294 14.8217 24.9769C14.9588 24.5925 15.0874 24.2053 15.2235 23.8208C15.241 23.7716 15.2875 23.7328 15.3207 23.6893L15.556 24.2057C15.5095 24.2717 15.4454 24.3311 15.4195 24.4046L14.9687 25.7282C14.9502 25.7813 14.8868 25.8188 14.8444 25.8636L14.7141 25.1164V25.1164Z" fill="#B6B598"/>
<path fill-rule="evenodd" clip-rule="evenodd" d="M14.8447 25.8634C14.8873 25.8188 14.9505 25.7811 14.969 25.7281L15.4198 24.4045C15.4455 24.3312 15.5098 24.2716 15.5563 24.2056L15.7841 24.4C15.674 24.5088 15.6129 24.6344 15.6497 24.7932L15.5805 25.0197C15.549 25.0585 15.5034 25.0923 15.4879 25.1367C15.3305 25.5873 15.1804 26.0403 15.0219 26.4908C15.0019 26.548 14.9462 26.5928 14.9068 26.6431C14.8864 26.383 14.8655 26.1235 14.8447 25.8634V25.8634Z" fill="#C2C1A7"/>
<path fill-rule="evenodd" clip-rule="evenodd" d="M14.9068 26.643C14.946 26.5926 15.0016 26.5478 15.0219 26.4908C15.1803 26.0404 15.3305 25.5874 15.4878 25.1367C15.5034 25.0924 15.5488 25.0585 15.5805 25.0197L15.485 26.0593C15.4595 26.0888 15.4226 26.1145 15.4104 26.1488C15.3026 26.4514 15.201 26.7563 15.0928 27.0589C15.0705 27.1213 15.0277 27.1765 14.9943 27.2348C14.9647 27.196 14.9116 27.1585 14.9092 27.118C14.8996 26.9603 14.9062 26.8015 14.9068 26.643V26.643Z" fill="#CECDB7"/>
<path fill-rule="evenodd" clip-rule="evenodd" d="M14.9941 27.2348C15.0275 27.1763 15.0703 27.1211 15.0926 27.0589C15.201 26.7565 15.3024 26.4516 15.4102 26.1488C15.4224 26.1145 15.4595 26.089 15.4848 26.0593L15.4871 26.7418L15.2587 27.3276L14.9941 27.2348V27.2348Z" fill="#DBDAC7"/>
<path fill-rule="evenodd" clip-rule="evenodd" d="M15.2588 27.3278L15.4872 26.7421L15.5342 27.4351L15.2588 27.3278V27.3278Z" fill="#EBE9DC"/>
<path fill-rule="evenodd" clip-rule="evenodd" d="M15.6496 24.7933C15.6129 24.6345 15.6738 24.5087 15.7841 24.4001L15.8473 24.4433L15.6496 24.7933V24.7933Z" fill="#CECDB7"/>
<path fill-rule="evenodd" clip-rule="evenodd" d="M15.0592 21.8447L15.0468 21.8427L15.0344 21.8446L15.0635 21.7397L15.0592 21.8447V21.8447Z" fill="#4FAA41"/>
</svg>
