<svg width="107" height="32" viewBox="0 0 107 32" fill="none" xmlns="http://www.w3.org/2000/svg">
<path d="M102 0H31V32H102C104.761 32 107 29.7614 107 27V5C107 2.23858 104.761 0 102 0Z" fill="#0F1418"/>
<path d="M5 0.5H30.5V31.5H5C2.51472 31.5 0.5 29.4853 0.5 27V5C0.5 2.51472 2.51472 0.5 5 0.5Z" fill="white" stroke="#1C2125"/>
<path d="M54.5879 22H52.2002L47.8716 15.4009C47.6177 15.0151 47.4419 14.7246 47.3443 14.5293H47.315C47.354 14.9004 47.3736 15.4668 47.3736 16.2285V22H45.1397V11.4971H47.6885L51.856 17.8911C52.0464 18.1792 52.2222 18.4648 52.3833 18.748H52.4126C52.3736 18.5039 52.354 18.0229 52.354 17.3052V11.4971H54.5879V22ZM63.9452 18.9092H59.0526C59.1307 19.998 59.8168 20.5425 61.1107 20.5425C61.9359 20.5425 62.661 20.3472 63.286 19.9565V21.6265C62.5926 21.9976 61.6918 22.1831 60.5834 22.1831C59.3724 22.1831 58.4325 21.8486 57.7635 21.1797C57.0946 20.5059 56.7601 19.5684 56.7601 18.3672C56.7601 17.1221 57.1214 16.1357 57.8441 15.4082C58.5668 14.6807 59.4554 14.3169 60.5101 14.3169C61.6039 14.3169 62.4486 14.6416 63.0443 15.291C63.6449 15.9404 63.9452 16.8218 63.9452 17.9351V18.9092ZM61.7992 17.4883C61.7992 16.4141 61.3646 15.877 60.4955 15.877C60.1244 15.877 59.8021 16.0308 59.5287 16.3384C59.2601 16.646 59.0965 17.0293 59.0379 17.4883H61.7992ZM72.7458 14.5L70.2702 18.1328L72.7311 22H70.0651L68.9811 19.9785C68.8932 19.8174 68.7883 19.5903 68.6662 19.2974H68.6369C68.5637 19.5024 68.4636 19.7222 68.3366 19.9565L67.2453 22H64.5866L67.1208 18.2646L64.7404 14.5H67.4211L68.4904 16.6021C68.632 16.8804 68.7321 17.1147 68.7907 17.3052H68.82C68.8981 17.0757 69.0031 16.8364 69.1349 16.5874L70.2262 14.5H72.7458ZM78.5068 21.9121C78.165 22.0928 77.6499 22.1831 76.9614 22.1831C75.3306 22.1831 74.5151 21.3359 74.5151 19.6416V16.2065H73.2993V14.5H74.5151V12.8813L76.8223 12.2222V14.5H78.5068V16.2065H76.8223V19.2388C76.8223 20.02 77.1323 20.4106 77.7524 20.4106C77.9966 20.4106 78.248 20.3398 78.5068 20.1982V21.9121ZM81.0306 22.1831C80.6497 22.1831 80.3323 22.0659 80.0784 21.8315C79.8245 21.5972 79.6976 21.3091 79.6976 20.9673C79.6976 20.6157 79.827 20.3276 80.0858 20.103C80.3494 19.8784 80.6766 19.7661 81.0672 19.7661C81.4627 19.7661 81.785 19.8809 82.034 20.1104C82.2879 20.335 82.4149 20.6206 82.4149 20.9673C82.4149 21.3237 82.2855 21.6167 82.0267 21.8462C81.7728 22.0708 81.4407 22.1831 81.0306 22.1831ZM85.422 13.3135C85.0314 13.3135 84.7116 13.1987 84.4625 12.9692C84.2135 12.7349 84.089 12.4492 84.089 12.1123C84.089 11.7656 84.2135 11.4824 84.4625 11.2627C84.7116 11.043 85.0314 10.9331 85.422 10.9331C85.8175 10.9331 86.1373 11.043 86.3815 11.2627C86.6305 11.4824 86.755 11.7656 86.755 12.1123C86.755 12.4639 86.6305 12.752 86.3815 12.9766C86.1373 13.2012 85.8175 13.3135 85.422 13.3135ZM86.5646 21.8682C86.5646 22.9766 86.2936 23.8628 85.7516 24.5269C85.2096 25.1909 84.4284 25.5229 83.4079 25.5229C83.0709 25.5229 82.7023 25.4497 82.3019 25.3032V23.4868C82.6242 23.6675 82.9098 23.7578 83.1588 23.7578C83.8864 23.7578 84.2501 23.1865 84.2501 22.0439V14.5H86.5646V21.8682ZM88.2021 21.8022V19.9272C88.583 20.1567 88.9614 20.3276 89.3374 20.4399C89.7182 20.5522 90.0771 20.6084 90.414 20.6084C90.8242 20.6084 91.1464 20.5522 91.3808 20.4399C91.6201 20.3276 91.7397 20.1567 91.7397 19.9272C91.7397 19.7808 91.686 19.6587 91.5786 19.561C91.4712 19.4634 91.332 19.3779 91.1611 19.3047C90.9951 19.2314 90.812 19.1655 90.6118 19.1069C90.4116 19.0483 90.2187 18.9824 90.0332 18.9092C89.7353 18.7969 89.4716 18.6772 89.2421 18.5503C89.0175 18.4185 88.8271 18.2671 88.6709 18.0962C88.5195 17.9253 88.4023 17.7275 88.3193 17.5029C88.2412 17.2783 88.2021 17.0122 88.2021 16.7046C88.2021 16.2847 88.2924 15.9233 88.4731 15.6206C88.6587 15.3179 88.9028 15.0713 89.2055 14.8809C89.5131 14.6855 89.8623 14.5439 90.2529 14.4561C90.6484 14.3633 91.0586 14.3169 91.4834 14.3169C91.8154 14.3169 92.1523 14.3438 92.4941 14.3975C92.8359 14.4463 93.1728 14.5195 93.5048 14.6172V16.4043C93.2119 16.2334 92.8969 16.1064 92.56 16.0234C92.228 15.9355 91.9008 15.8916 91.5786 15.8916C91.4272 15.8916 91.2832 15.9062 91.1464 15.9355C91.0146 15.96 90.8974 15.999 90.7949 16.0527C90.6923 16.1016 90.6118 16.1675 90.5532 16.2505C90.4946 16.3286 90.4653 16.4189 90.4653 16.5215C90.4653 16.6582 90.5092 16.7754 90.5971 16.873C90.685 16.9707 90.7998 17.0562 90.9414 17.1294C91.083 17.1978 91.2392 17.2612 91.4101 17.3198C91.5859 17.3735 91.7592 17.4297 91.9301 17.4883C92.2378 17.5957 92.5161 17.7129 92.7651 17.8398C93.0141 17.9668 93.2265 18.1157 93.4023 18.2866C93.583 18.4575 93.7197 18.6577 93.8125 18.8872C93.9101 19.1167 93.9589 19.3901 93.9589 19.7075C93.9589 20.1519 93.8613 20.5327 93.666 20.8501C93.4755 21.1626 93.2192 21.4189 92.8969 21.6191C92.5796 21.8145 92.2109 21.9561 91.791 22.0439C91.3759 22.1367 90.9438 22.1831 90.4946 22.1831C89.6694 22.1831 88.9052 22.0562 88.2021 21.8022Z" fill="white"/>
<path d="M24.9277 22.3389C23.6409 22.3038 22.6582 22.4236 21.818 22.7778C21.5793 22.8785 21.1983 22.8813 21.1593 23.1804C21.2905 23.3178 21.311 23.5233 21.4152 23.6925C21.6159 24.0168 21.9545 24.4522 22.2567 24.6802C22.5871 24.9296 22.9274 25.196 23.2814 25.4118C23.911 25.7956 24.614 26.015 25.2202 26.3996C25.5775 26.6265 25.9325 26.912 26.281 27.1678C26.4535 27.2943 26.5692 27.491 26.7933 27.5703V27.534C26.6755 27.384 26.6452 27.1781 26.5372 27.0215L26.0615 26.5458C25.5965 25.9286 25.006 25.3863 24.3785 24.9361C23.878 24.5769 22.7581 24.0916 22.5494 23.5095L22.5129 23.4729C22.8676 23.4328 23.2829 23.3045 23.6105 23.2166C24.1606 23.0692 24.6522 23.1073 25.2202 22.9606L25.9884 22.7411V22.5948C25.7013 22.3003 25.4965 21.9103 25.1836 21.6436C24.3642 20.9461 23.4702 20.2492 22.5496 19.668C22.0389 19.3458 21.4079 19.1364 20.8666 18.8632C20.6845 18.7711 20.3647 18.7233 20.2445 18.5703C19.96 18.2081 19.8054 17.7487 19.5862 17.3266C19.127 16.4422 18.676 15.4764 18.2692 14.5458C17.9917 13.9113 17.8104 13.2858 17.4642 12.7166C15.803 9.98527 14.015 8.33695 11.245 6.71658C10.6555 6.37195 9.94585 6.23602 9.19585 6.05789C8.79366 6.0337 8.3911 6.00914 7.98873 5.98458C7.74291 5.8822 7.48754 5.58164 7.2571 5.43577C6.33948 4.85602 3.9856 3.59508 3.3061 5.25295C2.87691 6.29939 3.94754 7.32014 4.33023 7.85058C4.5991 8.2222 4.94316 8.63939 5.13516 9.0577C5.26154 9.33277 5.28329 9.60858 5.39148 9.89939C5.65716 10.616 5.88873 11.3956 6.23279 12.0577C6.4066 12.393 6.59823 12.7458 6.81816 13.0455C6.95279 13.2294 7.18398 13.3104 7.22035 13.5943C6.9946 13.9104 6.98166 14.4013 6.85473 14.8018C6.28285 16.6046 6.49866 18.8456 7.33041 20.1798C7.58541 20.5897 8.18673 21.4681 9.01323 21.131C9.73623 20.8366 9.57479 19.9239 9.7816 19.1188C9.82829 18.9363 9.7996 18.8021 9.89129 18.6798V18.7164L10.55 20.0334C11.0375 20.8185 11.9022 21.6388 12.6354 22.1923C13.0154 22.4793 13.3147 22.9755 13.8061 23.1435V23.1067H13.7695C13.6743 22.9584 13.5252 22.8969 13.4037 22.7776C13.1174 22.497 12.799 22.148 12.5624 21.8265C11.8957 20.9214 11.3065 19.9308 10.7697 18.8998C10.5132 18.4072 10.2903 17.8642 10.0743 17.363C9.99104 17.1699 9.99216 16.8776 9.81854 16.7776C9.58173 17.1448 9.23316 17.4418 9.05016 17.8753C8.75748 18.5683 8.71979 19.4135 8.61123 20.2899C8.5471 20.3128 8.5756 20.297 8.53791 20.3263C8.02829 20.2035 7.84941 19.679 7.65985 19.2288C7.18098 18.0907 7.09191 16.2585 7.51341 14.9484C7.62254 14.6092 8.11529 13.542 7.91579 13.2286C7.82054 12.9163 7.50629 12.7355 7.3306 12.4968C7.11291 12.2017 6.89579 11.8132 6.74485 11.4723C6.35298 10.5853 6.16998 9.58908 5.75729 8.69208C5.55985 8.26327 5.22629 7.8292 4.95235 7.4482C4.64916 7.02577 4.30941 6.7147 4.07429 6.20414C3.99066 6.02264 3.87723 5.73202 4.00098 5.54545C4.04035 5.41964 4.09623 5.36714 4.22054 5.32608C4.43279 5.16239 5.02379 5.38045 5.24466 5.47214C5.83135 5.71589 6.3211 5.94802 6.81816 6.27727C7.05648 6.43552 7.29798 6.74133 7.58635 6.82608H7.9156C8.43066 6.94439 9.0076 6.86264 9.48891 7.00889C10.3394 7.26727 11.1016 7.66945 11.7937 8.10652C13.9023 9.43814 15.6265 11.3334 16.8059 13.5945C16.9957 13.9586 17.0778 14.3058 17.2449 14.6921C17.582 15.4708 18.0067 16.272 18.3421 17.0336C18.677 17.7933 19.0032 18.56 19.4765 19.1923C19.7253 19.5245 20.686 19.7028 21.1229 19.8875C21.4289 20.0167 21.9305 20.1517 22.2205 20.3263C22.7742 20.6604 23.3109 21.0581 23.8304 21.4241C24.0897 21.6069 24.8879 22.0083 24.9277 22.3389V22.3389ZM8.5741 8.39995C8.30579 8.39489 8.11604 8.4292 7.91541 8.47289V8.50945H7.95198C8.08004 8.77233 8.30598 8.94183 8.46404 9.16814C8.58591 9.42445 8.70798 9.68039 8.83004 9.93633L8.86641 9.90014C9.0931 9.7402 9.19679 9.48502 9.19548 9.09502C9.10473 8.99958 9.09141 8.87995 9.01266 8.76595C8.90841 8.61389 8.7061 8.52745 8.5741 8.39995Z" fill="#00618A"/>
<path d="M102 0H31V32H102C104.761 32 107 29.7614 107 27V5C107 2.23858 104.761 0 102 0Z" fill="#0F1418"/>
<path d="M56.0716 22H53.7352V15.7158C53.7352 15.0371 53.7645 14.2876 53.8231 13.4673H53.7645C53.6424 14.1118 53.5326 14.5757 53.4349 14.8589L50.974 22H49.0404L46.5355 14.9321C46.4671 14.7417 46.3573 14.2534 46.2059 13.4673H46.14C46.2035 14.5024 46.2352 15.4106 46.2352 16.1919V22H44.1039V11.4971H47.5682L49.7142 17.7227C49.8851 18.2207 50.0096 18.7212 50.0878 19.2241H50.1317C50.2635 18.6431 50.4027 18.1377 50.5492 17.708L52.6952 11.4971H56.0716V22ZM65.8171 14.5L62.7702 22.6006C62.0378 24.5488 60.9343 25.5229 59.4596 25.5229C58.8981 25.5229 58.4367 25.4595 58.0754 25.3325V23.4868C58.383 23.6675 58.7175 23.7578 59.0788 23.7578C59.6745 23.7578 60.0895 23.4771 60.3239 22.9155L60.7194 21.9854L57.6725 14.5H60.236L61.6349 19.063C61.7228 19.3462 61.7912 19.6807 61.84 20.0664H61.8693C61.9133 19.7832 61.9938 19.4536 62.111 19.0776L63.5246 14.5H65.8171ZM66.9346 21.5972V19.2534C67.3594 19.6099 67.8208 19.8784 68.3188 20.0591C68.8169 20.2349 69.3198 20.3228 69.8276 20.3228C70.1255 20.3228 70.3843 20.2959 70.604 20.2422C70.8286 20.1885 71.0142 20.1152 71.1606 20.0225C71.312 19.9248 71.4243 19.8125 71.4976 19.6855C71.5708 19.5537 71.6074 19.4121 71.6074 19.2607C71.6074 19.0557 71.5488 18.8726 71.4316 18.7114C71.3145 18.5503 71.1533 18.4014 70.9482 18.2646C70.748 18.1279 70.5088 17.9961 70.2305 17.8691C69.9521 17.7422 69.6519 17.6128 69.3296 17.481C68.5093 17.1392 67.8965 16.7217 67.4912 16.2285C67.0908 15.7354 66.8906 15.1396 66.8906 14.4414C66.8906 13.8945 67.0005 13.4258 67.2202 13.0352C67.4399 12.6396 67.7378 12.3149 68.1138 12.061C68.4946 11.8071 68.9341 11.6216 69.4321 11.5044C69.9302 11.3823 70.4575 11.3213 71.0142 11.3213C71.561 11.3213 72.0444 11.3555 72.4644 11.4238C72.8892 11.4873 73.2798 11.5874 73.6362 11.7241V13.9141C73.4604 13.792 73.2676 13.6846 73.0576 13.5918C72.8525 13.499 72.6401 13.4233 72.4204 13.3647C72.2007 13.3013 71.981 13.2549 71.7612 13.2256C71.5464 13.1963 71.3413 13.1816 71.146 13.1816C70.8774 13.1816 70.6333 13.2085 70.4136 13.2622C70.1938 13.311 70.0083 13.3818 69.8569 13.4746C69.7056 13.5674 69.5884 13.6797 69.5054 13.8115C69.4224 13.9385 69.3809 14.0825 69.3809 14.2437C69.3809 14.4194 69.4272 14.5781 69.52 14.7197C69.6128 14.8564 69.7446 14.9883 69.9155 15.1152C70.0864 15.2373 70.2939 15.3594 70.5381 15.4814C70.7822 15.5986 71.0581 15.7207 71.3657 15.8477C71.7856 16.0234 72.1616 16.2114 72.4937 16.4116C72.8306 16.6069 73.1187 16.8291 73.3579 17.0781C73.5972 17.3271 73.7803 17.6128 73.9072 17.9351C74.0342 18.2524 74.0977 18.6235 74.0977 19.0483C74.0977 19.6343 73.9854 20.1274 73.7607 20.5278C73.541 20.9233 73.2407 21.2456 72.8599 21.4946C72.479 21.7388 72.0347 21.9146 71.5269 22.022C71.0239 22.1294 70.4917 22.1831 69.9302 22.1831C69.354 22.1831 68.8047 22.1343 68.2822 22.0366C67.7646 21.939 67.3154 21.7925 66.9346 21.5972ZM80.972 22.1831C79.4681 22.1831 78.2425 21.6948 77.2952 20.7183C76.348 19.7319 75.8743 18.4551 75.8743 16.8877C75.8743 15.2324 76.3553 13.8896 77.3172 12.8594C78.2742 11.834 79.5487 11.3213 81.1404 11.3213C82.6395 11.3213 83.8504 11.812 84.7733 12.7935C85.701 13.77 86.1649 15.064 86.1649 16.6753C86.1649 18.3208 85.6839 19.6514 84.722 20.667C84.6878 20.7012 84.6561 20.7354 84.6268 20.7695C84.5975 20.7988 84.5657 20.8281 84.5316 20.8574L87.1903 23.4136H83.8797L82.4881 22C82.0291 22.1221 81.5238 22.1831 80.972 22.1831ZM81.0745 13.3574C80.2493 13.3574 79.5902 13.6699 79.097 14.2949C78.6087 14.915 78.3646 15.7378 78.3646 16.7632C78.3646 17.8032 78.6087 18.626 79.097 19.2314C79.5853 19.8369 80.2249 20.1396 81.0159 20.1396C81.8314 20.1396 82.4783 19.8467 82.9569 19.2607C83.4354 18.665 83.6746 17.8472 83.6746 16.8071C83.6746 15.7231 83.4427 14.876 82.9788 14.2656C82.5198 13.6602 81.8851 13.3574 81.0745 13.3574ZM94.8776 22H88.6227V11.4971H90.9884V20.0811H94.8776V22Z" fill="white"/>
</svg>
