<svg width="107" height="32" viewBox="0 0 107 32" fill="none" xmlns="http://www.w3.org/2000/svg">
<path d="M102 0H31V32H102C104.761 32 107 29.7614 107 27V5C107 2.23858 104.761 0 102 0Z" fill="#0F1418"/>
<path d="M5 0.5H30.5V31.5H5C2.51472 31.5 0.5 29.4853 0.5 27V5C0.5 2.51472 2.51472 0.5 5 0.5Z" fill="white" stroke="#1C2125"/>
<path d="M55.4302 22H53.0425L48.7139 15.4009C48.46 15.0151 48.2842 14.7246 48.1866 14.5293H48.1573C48.1963 14.9004 48.2159 15.4668 48.2159 16.2285V22H45.982V11.4971H48.5308L52.6983 17.8911C52.8887 18.1792 53.0645 18.4648 53.2256 18.748H53.2549C53.2159 18.5039 53.1963 18.0229 53.1963 17.3052V11.4971H55.4302V22ZM64.7875 18.9092H59.8949C59.973 19.998 60.659 20.5425 61.953 20.5425C62.7782 20.5425 63.5033 20.3472 64.1283 19.9565V21.6265C63.4349 21.9976 62.534 22.1831 61.4256 22.1831C60.2147 22.1831 59.2748 21.8486 58.6058 21.1797C57.9369 20.5059 57.6024 19.5684 57.6024 18.3672C57.6024 17.1221 57.9637 16.1357 58.6864 15.4082C59.409 14.6807 60.2977 14.3169 61.3524 14.3169C62.4462 14.3169 63.2909 14.6416 63.8866 15.291C64.4872 15.9404 64.7875 16.8218 64.7875 17.9351V18.9092ZM62.6415 17.4883C62.6415 16.4141 62.2069 15.877 61.3378 15.877C60.9667 15.877 60.6444 16.0308 60.371 16.3384C60.1024 16.646 59.9388 17.0293 59.8802 17.4883H62.6415ZM65.8537 21.8022V19.9272C66.2346 20.1567 66.613 20.3276 66.9889 20.4399C67.3698 20.5522 67.7287 20.6084 68.0656 20.6084C68.4758 20.6084 68.798 20.5522 69.0324 20.4399C69.2717 20.3276 69.3913 20.1567 69.3913 19.9272C69.3913 19.7808 69.3376 19.6587 69.2302 19.561C69.1227 19.4634 68.9836 19.3779 68.8127 19.3047C68.6467 19.2314 68.4636 19.1655 68.2634 19.1069C68.0632 19.0483 67.8703 18.9824 67.6847 18.9092C67.3869 18.7969 67.1232 18.6772 66.8937 18.5503C66.6691 18.4185 66.4787 18.2671 66.3224 18.0962C66.1711 17.9253 66.0539 17.7275 65.9709 17.5029C65.8928 17.2783 65.8537 17.0122 65.8537 16.7046C65.8537 16.2847 65.944 15.9233 66.1247 15.6206C66.3102 15.3179 66.5544 15.0713 66.8571 14.8809C67.1647 14.6855 67.5138 14.5439 67.9045 14.4561C68.3 14.3633 68.7101 14.3169 69.1349 14.3169C69.467 14.3169 69.8039 14.3438 70.1457 14.3975C70.4875 14.4463 70.8244 14.5195 71.1564 14.6172V16.4043C70.8635 16.2334 70.5485 16.1064 70.2116 16.0234C69.8796 15.9355 69.5524 15.8916 69.2302 15.8916C69.0788 15.8916 68.9347 15.9062 68.798 15.9355C68.6662 15.96 68.549 15.999 68.4465 16.0527C68.3439 16.1016 68.2634 16.1675 68.2048 16.2505C68.1462 16.3286 68.1169 16.4189 68.1169 16.5215C68.1169 16.6582 68.1608 16.7754 68.2487 16.873C68.3366 16.9707 68.4513 17.0562 68.5929 17.1294C68.7346 17.1978 68.8908 17.2612 69.0617 17.3198C69.2375 17.3735 69.4108 17.4297 69.5817 17.4883C69.8893 17.5957 70.1677 17.7129 70.4167 17.8398C70.6657 17.9668 70.8781 18.1157 71.0539 18.2866C71.2346 18.4575 71.3713 18.6577 71.464 18.8872C71.5617 19.1167 71.6105 19.3901 71.6105 19.7075C71.6105 20.1519 71.5129 20.5327 71.3176 20.8501C71.1271 21.1626 70.8708 21.4189 70.5485 21.6191C70.2311 21.8145 69.8625 21.9561 69.4426 22.0439C69.0275 22.1367 68.5954 22.1831 68.1462 22.1831C67.321 22.1831 66.5568 22.0562 65.8537 21.8022ZM77.6646 21.9121C77.3228 22.0928 76.8076 22.1831 76.1191 22.1831C74.4883 22.1831 73.6729 21.3359 73.6729 19.6416V16.2065H72.457V14.5H73.6729V12.8813L75.98 12.2222V14.5H77.6646V16.2065H75.98V19.2388C75.98 20.02 76.29 20.4106 76.9102 20.4106C77.1543 20.4106 77.4058 20.3398 77.6646 20.1982V21.9121ZM80.1883 22.1831C79.8074 22.1831 79.4901 22.0659 79.2362 21.8315C78.9822 21.5972 78.8553 21.3091 78.8553 20.9673C78.8553 20.6157 78.9847 20.3276 79.2435 20.103C79.5071 19.8784 79.8343 19.7661 80.2249 19.7661C80.6204 19.7661 80.9427 19.8809 81.1917 20.1104C81.4456 20.335 81.5726 20.6206 81.5726 20.9673C81.5726 21.3237 81.4432 21.6167 81.1844 21.8462C80.9305 22.0708 80.5985 22.1831 80.1883 22.1831ZM84.5797 13.3135C84.1891 13.3135 83.8693 13.1987 83.6203 12.9692C83.3712 12.7349 83.2467 12.4492 83.2467 12.1123C83.2467 11.7656 83.3712 11.4824 83.6203 11.2627C83.8693 11.043 84.1891 10.9331 84.5797 10.9331C84.9752 10.9331 85.2951 11.043 85.5392 11.2627C85.7882 11.4824 85.9127 11.7656 85.9127 12.1123C85.9127 12.4639 85.7882 12.752 85.5392 12.9766C85.2951 13.2012 84.9752 13.3135 84.5797 13.3135ZM85.7223 21.8682C85.7223 22.9766 85.4513 23.8628 84.9093 24.5269C84.3673 25.1909 83.5861 25.5229 82.5656 25.5229C82.2287 25.5229 81.86 25.4497 81.4596 25.3032V23.4868C81.7819 23.6675 82.0675 23.7578 82.3165 23.7578C83.0441 23.7578 83.4079 23.1865 83.4079 22.0439V14.5H85.7223V21.8682ZM87.3598 21.8022V19.9272C87.7407 20.1567 88.1191 20.3276 88.4951 20.4399C88.8759 20.5522 89.2348 20.6084 89.5717 20.6084C89.9819 20.6084 90.3042 20.5522 90.5385 20.4399C90.7778 20.3276 90.8974 20.1567 90.8974 19.9272C90.8974 19.7808 90.8437 19.6587 90.7363 19.561C90.6289 19.4634 90.4897 19.3779 90.3188 19.3047C90.1528 19.2314 89.9697 19.1655 89.7695 19.1069C89.5693 19.0483 89.3764 18.9824 89.1909 18.9092C88.893 18.7969 88.6294 18.6772 88.3999 18.5503C88.1753 18.4185 87.9848 18.2671 87.8286 18.0962C87.6772 17.9253 87.56 17.7275 87.477 17.5029C87.3989 17.2783 87.3598 17.0122 87.3598 16.7046C87.3598 16.2847 87.4502 15.9233 87.6308 15.6206C87.8164 15.3179 88.0605 15.0713 88.3632 14.8809C88.6709 14.6855 89.02 14.5439 89.4106 14.4561C89.8061 14.3633 90.2163 14.3169 90.6411 14.3169C90.9731 14.3169 91.31 14.3438 91.6518 14.3975C91.9936 14.4463 92.3305 14.5195 92.6626 14.6172V16.4043C92.3696 16.2334 92.0546 16.1064 91.7177 16.0234C91.3857 15.9355 91.0586 15.8916 90.7363 15.8916C90.5849 15.8916 90.4409 15.9062 90.3042 15.9355C90.1723 15.96 90.0551 15.999 89.9526 16.0527C89.8501 16.1016 89.7695 16.1675 89.7109 16.2505C89.6523 16.3286 89.623 16.4189 89.623 16.5215C89.623 16.6582 89.667 16.7754 89.7548 16.873C89.8427 16.9707 89.9575 17.0562 90.0991 17.1294C90.2407 17.1978 90.3969 17.2612 90.5678 17.3198C90.7436 17.3735 90.917 17.4297 91.0879 17.4883C91.3955 17.5957 91.6738 17.7129 91.9228 17.8398C92.1718 17.9668 92.3842 18.1157 92.56 18.2866C92.7407 18.4575 92.8774 18.6577 92.9702 18.8872C93.0678 19.1167 93.1167 19.3901 93.1167 19.7075C93.1167 20.1519 93.019 20.5327 92.8237 20.8501C92.6333 21.1626 92.3769 21.4189 92.0546 21.6191C91.7373 21.8145 91.3686 21.9561 90.9487 22.0439C90.5337 22.1367 90.1015 22.1831 89.6523 22.1831C88.8271 22.1831 88.063 22.0562 87.3598 21.8022Z" fill="white"/>
<path d="M17.1231 5C16.9547 5 16.7864 5.03765 16.6367 5.09412C16.9547 5.30118 17.1231 5.58353 17.2166 5.90353C17.2166 5.94118 17.2353 5.97882 17.2353 6.01647C17.2353 6.05412 17.254 6.09176 17.254 6.12941C17.2727 6.67529 17.1044 6.75059 16.9921 7.07059C16.8051 7.48471 16.8612 7.93647 17.0857 8.29412C17.1044 8.33176 17.1231 8.38824 17.1605 8.42588C16.9173 6.84471 18.2268 6.61882 18.4699 6.12941C18.4886 5.69647 18.1332 5.41412 17.8526 5.20706C17.572 5.03765 17.3476 5 17.1231 5ZM19.0872 5.33882C19.0685 5.48941 19.0872 5.45176 19.0685 5.52706C19.0685 5.58353 19.0685 5.64 19.0498 5.69647C19.0311 5.75294 19.0311 5.79059 19.0124 5.84706C18.9937 5.90353 18.975 5.94118 18.9563 5.99765C18.9376 6.03529 18.9189 6.07294 18.9002 6.12941C18.8815 6.14824 18.8628 6.18588 18.8441 6.20471C18.8253 6.22353 18.8253 6.24235 18.8066 6.26118C18.7692 6.29882 18.7505 6.35529 18.7131 6.39294L18.6009 6.50588C18.5635 6.54353 18.526 6.58118 18.4886 6.6C18.3577 6.69412 18.208 6.76941 18.0771 6.86353C18.0397 6.90118 17.9836 6.92 17.9462 6.95765C17.9087 6.99529 17.8713 7.01412 17.8339 7.05176L17.7217 7.16471C17.6843 7.20235 17.6469 7.24 17.6282 7.29647C17.5907 7.33412 17.572 7.39059 17.5346 7.42824C17.5159 7.48471 17.4972 7.52235 17.4598 7.57882C17.4411 7.63529 17.4224 7.67294 17.4037 7.72941C17.385 7.78588 17.3663 7.84235 17.3663 7.88C17.3663 7.89882 17.3663 7.93647 17.3476 7.95529C17.3476 7.97412 17.3476 8.01176 17.3289 8.03059V8.29412C17.3289 8.35059 17.3289 8.38824 17.3476 8.44471C17.3476 8.50118 17.3663 8.53882 17.385 8.59529C17.4037 8.65176 17.4224 8.68941 17.4411 8.74588C17.4598 8.78353 17.4785 8.80235 17.4785 8.84L16.0568 8.29412C15.8137 8.21882 15.5892 8.16235 15.346 8.10588C15.2151 8.06824 15.0841 8.04941 14.9532 8.01176C14.5791 7.93647 14.2049 7.88 13.8308 7.84235H13.7934C13.4193 7.80471 13.0639 7.78588 12.6898 7.78588C12.4092 7.78588 12.1473 7.80471 11.8854 7.82353C11.5113 7.84235 11.1371 7.89882 10.763 7.95529L10.4824 8.01176C10.2954 8.04941 10.1083 8.08706 9.92125 8.14353C9.82772 8.16235 9.73419 8.2 9.64066 8.21882C9.54713 8.25647 9.4536 8.29412 9.37877 8.33176C9.30395 8.36941 9.24783 8.38824 9.17301 8.42588C9.1543 8.42588 9.1543 8.42588 9.1356 8.44471C9.07948 8.48235 9.02336 8.50118 8.96724 8.53882C8.94853 8.53882 8.92983 8.55765 8.92983 8.55765C8.855 8.59529 8.79889 8.63294 8.74277 8.65177C8.70536 8.67059 8.64924 8.68941 8.61182 8.70824C8.59312 8.72706 8.57441 8.72706 8.55571 8.74588C8.49959 8.78353 8.44347 8.80235 8.38735 8.84C8.33123 8.87765 8.27512 8.89647 8.2377 8.93412C8.20029 8.97177 8.14417 8.99059 8.10676 9.02824C8.10676 9.02824 8.08805 9.02824 8.08805 9.04706C8.05064 9.06588 8.01323 9.10353 7.97582 9.14118L7.95711 9.16C7.9197 9.17882 7.90099 9.21647 7.86358 9.23529C7.84488 9.23529 7.84488 9.25412 7.82617 9.25412C7.78876 9.27294 7.77005 9.31059 7.73264 9.32941C7.73264 9.34824 7.71393 9.34824 7.71393 9.34824L7.6017 9.46118L7.58299 9.48L7.47075 9.59294C7.47075 9.59294 7.47075 9.61176 7.45205 9.61176L7.35852 9.70588C7.33981 9.72471 7.32111 9.72471 7.32111 9.74353L7.20887 9.85647C7.20887 9.87529 7.19016 9.87529 7.19016 9.89412L7.04051 10.0447L7.02181 10.0635C6.92828 10.1765 6.81604 10.2706 6.7038 10.3647C6.59157 10.4588 6.47933 10.5529 6.34839 10.6471C6.21745 10.7412 6.10521 10.8165 5.97427 10.8918C5.84332 10.9671 5.71238 11.0235 5.58144 11.08C5.4505 11.1365 5.31955 11.1929 5.18861 11.2306C4.92673 11.2871 4.66484 11.4 4.44037 11.4188C4.44037 11.3247 4.38425 11.3435 4.32813 11.3435C4.27201 11.3624 4.2159 11.3624 4.17848 11.3812C4.12236 11.4 4.08495 11.4188 4.02883 11.4376C3.97272 11.4565 3.9353 11.4753 3.87919 11.5129C3.84177 11.5506 3.78566 11.5694 3.74824 11.6071C3.71083 11.6447 3.65471 11.6824 3.6173 11.72C3.57989 11.7576 3.52377 11.7953 3.48636 11.8329C3.44895 11.8706 3.41153 11.9082 3.37412 11.9647C3.33671 12.0212 3.2993 12.0588 3.28059 12.1153C3.24318 12.1529 3.22447 12.2094 3.18706 12.2659C3.16835 12.3224 3.13094 12.3788 3.11224 12.4353L3.05612 12.6047C3.03741 12.6612 3.03741 12.6988 3.01871 12.7553V12.7741C3 12.8306 3 12.9059 3 12.9435C3.01871 12.9247 3.01871 12.9624 3.01871 13V13.0753C3.01871 13.1129 3.03741 13.1506 3.03741 13.1882C3.05612 13.2259 3.05612 13.2635 3.07482 13.3012C3.09353 13.3388 3.11224 13.3765 3.14965 13.4141C3.16835 13.4518 3.20577 13.4894 3.22447 13.5271C3.26189 13.5647 3.2993 13.6024 3.33671 13.6212C3.37412 13.6588 3.41153 13.6965 3.44895 13.7153C3.59859 13.8471 3.63601 13.8847 3.82307 13.9976C3.86048 14.0165 3.87919 14.0353 3.9166 14.0541H3.9353V14.0918C3.9353 14.1482 3.95401 14.1859 3.97272 14.2424C3.99142 14.2988 4.01013 14.3553 4.02883 14.3929L4.08495 14.5059C4.08495 14.5247 4.10366 14.5247 4.10366 14.5435C4.12236 14.6 4.15978 14.6376 4.17848 14.6753C4.2159 14.7129 4.2346 14.7694 4.27201 14.8071L4.38425 14.92L4.49649 15.0329H4.51519C4.55261 15.0706 4.59002 15.0894 4.62743 15.1271C4.66484 15.1647 4.72096 15.1835 4.75837 15.2024C4.79578 15.2212 4.8519 15.2588 4.90802 15.2776C4.94543 15.2965 4.98284 15.3153 5.03896 15.3153C5.03896 15.3153 5.05767 15.3153 5.05767 15.3341C5.07638 15.3341 5.11379 15.3529 5.13249 15.3529C5.11379 15.6918 5.11379 16.0118 5.1512 16.1247C5.20732 16.2565 5.48791 15.8612 5.74979 15.4282C5.71238 15.8612 5.69368 16.3694 5.74979 16.52C5.82462 16.6706 6.18003 16.1812 6.51674 15.6541C10.894 14.6376 14.8971 17.6871 15.3273 21.9976C15.2525 21.32 14.4294 20.9435 14.0366 21.0376C13.8495 21.4894 13.5315 22.0918 13.0265 22.4494C13.0639 22.0353 13.0452 21.6212 12.9703 21.2071C12.8394 21.7718 12.5775 22.3176 12.2034 22.7694C11.6235 22.8071 11.0249 22.5247 10.7256 22.0918C10.7069 22.0729 10.6882 22.0353 10.6695 22.0165C10.6508 21.9788 10.6321 21.9224 10.6134 21.8847C10.5947 21.8471 10.576 21.7906 10.576 21.7529V21.6212V21.5271C10.576 21.4894 10.5947 21.4329 10.6134 21.3953C10.6321 21.3576 10.6321 21.3012 10.6508 21.2635C10.6695 21.2259 10.6882 21.1694 10.7256 21.1318C10.8378 20.8306 10.8378 20.5859 10.6321 20.4541L10.5198 20.3976C10.5011 20.3976 10.4637 20.3788 10.445 20.3788C10.4263 20.3788 10.4076 20.36 10.3889 20.36C10.3515 20.3412 10.2954 20.3412 10.258 20.3224C10.2205 20.3035 10.1644 20.3035 10.127 20.3035C10.0896 20.3035 10.0335 20.2847 9.99607 20.2847H9.90254C9.84643 20.2847 9.80901 20.2847 9.7716 20.3035C9.73419 20.3035 9.67807 20.3224 9.64066 20.3224C9.60325 20.3412 9.54713 20.3412 9.50972 20.36C9.4723 20.3788 9.43489 20.3976 9.37877 20.4165L9.26654 20.4729C7.82617 21.4141 8.68665 23.6353 9.65937 24.2753C9.28524 24.3506 8.91112 24.4259 8.79889 24.5012L8.78018 24.52C9.04206 24.6894 9.32266 24.8212 9.62195 24.9341C10.0148 25.0659 10.445 25.1788 10.6321 25.2353C11.1371 25.3482 11.6609 25.3859 12.1847 25.3482C14.9158 25.16 17.1605 23.0518 17.572 20.3035C17.5907 20.36 17.5907 20.4165 17.6095 20.4729C17.6282 20.5859 17.6469 20.6988 17.6656 20.8306C17.6843 20.8871 17.6843 20.9435 17.6843 21V21.0188C17.6843 21.0753 17.703 21.1318 17.703 21.1882C17.703 21.2635 17.7217 21.32 17.7217 21.3953V22.1859C17.7217 22.2424 17.703 22.28 17.703 22.3365V22.3929C17.703 22.4494 17.6843 22.5059 17.6843 22.5812C17.6656 22.6376 17.6656 22.6941 17.6469 22.7506V22.7694C17.6282 22.8259 17.6282 22.8824 17.6095 22.9388V22.9576C17.5907 23.0141 17.5907 23.0706 17.572 23.1271V23.1459L17.5159 23.3153V23.3341C17.4972 23.3906 17.4785 23.4659 17.4598 23.5224C17.4411 23.5788 17.4224 23.6353 17.385 23.7106C17.3663 23.7671 17.3476 23.8424 17.3102 23.8988C17.2914 23.9553 17.254 24.0118 17.2353 24.0871C17.2166 24.1435 17.1792 24.2 17.1605 24.2565C17.1605 24.2753 17.1418 24.2941 17.1418 24.2941C17.1418 24.2941 17.1418 24.3129 17.1231 24.3129C16.7303 25.1224 16.1317 25.8376 15.3834 26.4024C15.3273 26.44 15.2899 26.4776 15.2338 26.5153C15.2151 26.5341 15.1964 26.5341 15.1964 26.5529C15.159 26.5906 15.1028 26.6094 15.0654 26.6471L15.0841 26.6847C15.1777 26.6659 15.2525 26.6659 15.346 26.6471C15.5144 26.6282 15.664 26.5906 15.8324 26.5529C15.8698 26.5529 15.9259 26.5341 15.9633 26.5153C16.0007 26.5153 16.0194 26.4965 16.0568 26.4965C16.0943 26.4965 16.1504 26.4776 16.1878 26.4776C16.2252 26.4588 16.2626 26.4588 16.3 26.44C16.9173 26.2894 17.5159 26.0824 18.0958 25.8376C17.1044 27.1929 15.795 28.2847 14.2611 29C14.9719 28.9435 15.6827 28.8306 16.3748 28.6235C18.8628 27.8894 20.9578 26.1953 22.2111 23.9176C21.9493 25.3482 21.3881 26.7224 20.5463 27.9271C21.1449 27.5318 21.6874 27.0612 22.1924 26.5529C23.5767 25.1035 24.4933 23.24 24.7926 21.2635C24.9984 22.2424 25.0732 23.2588 24.9796 24.2565C29.4504 17.9882 25.3538 11.4941 23.6328 9.78118C23.6328 9.76235 23.6141 9.76235 23.6141 9.74353C23.6141 9.81882 23.6141 9.89412 23.5954 9.96941C23.5767 10.12 23.558 10.2518 23.5393 10.3835C23.5019 10.5153 23.4645 10.6659 23.427 10.7976C23.3896 10.9294 23.3335 11.0612 23.2774 11.1929C23.2213 11.3247 23.1652 11.4565 23.0903 11.5694C23.0155 11.6824 22.9407 11.8141 22.8659 11.9271C22.791 12.04 22.6975 12.1529 22.604 12.2659C22.5104 12.3788 22.4169 12.4729 22.3047 12.5859C22.2486 12.6424 22.1924 12.6988 22.1176 12.7365C22.0615 12.7741 22.0241 12.8118 21.968 12.8682C21.8557 12.9624 21.7435 13.0376 21.6126 13.1129C21.5003 13.1882 21.3694 13.2635 21.2384 13.32L20.8456 13.4894C20.7147 13.5459 20.5837 13.5835 20.4528 13.6212C20.3218 13.6588 20.1722 13.6965 20.0412 13.7153C19.8916 13.7341 19.7607 13.7529 19.6297 13.7718C19.5362 13.7718 19.4239 13.7906 19.3304 13.7906C19.1808 13.7906 19.0498 13.7718 18.9189 13.7718C18.7692 13.7529 18.6383 13.7341 18.5073 13.7153C18.3577 13.6965 18.2268 13.6588 18.0958 13.6024C18.2268 13.5835 18.3764 13.5835 18.5073 13.5459C18.657 13.5271 18.7879 13.4894 18.9189 13.4518C19.0498 13.4141 19.1995 13.3765 19.3117 13.32L19.7045 13.1506C19.8355 13.0941 19.9477 13.0188 20.0787 12.9435C20.1909 12.8682 20.3218 12.7741 20.4341 12.6988C20.5463 12.6047 20.6585 12.5106 20.7521 12.4165C20.8643 12.3224 20.9578 12.2094 21.0514 12.1153C21.1449 12.0024 21.2384 11.8894 21.3133 11.7765C21.332 11.7576 21.332 11.7388 21.3507 11.72C21.4068 11.6259 21.4816 11.5129 21.5377 11.4188C21.6126 11.2871 21.6687 11.1741 21.7248 11.0424C21.7809 10.9106 21.837 10.7788 21.8744 10.6471L21.9867 10.2518C22.0054 10.1012 22.0428 9.96941 22.0428 9.83765C22.0615 9.68706 22.0615 9.55529 22.0615 9.42353C22.0615 9.32941 22.0615 9.21647 22.0428 9.12235C22.0241 8.97177 22.0054 8.84 21.9867 8.70824C21.968 8.55765 21.9306 8.42588 21.8931 8.29412C21.8557 8.16235 21.7996 8.03059 21.7622 7.89882C21.7061 7.76706 21.65 7.63529 21.5938 7.52235C21.519 7.39059 21.4629 7.27765 21.3881 7.14588C21.3133 7.03294 21.2197 6.92 21.1449 6.80706C21.0514 6.69412 20.9578 6.6 20.8643 6.48706C20.8082 6.43059 20.7521 6.37412 20.696 6.33647C20.4154 6.11059 20.1348 5.92235 19.8355 5.73412C19.7981 5.71529 19.7607 5.69647 19.7045 5.67765C19.4614 5.47059 19.2743 5.41412 19.0872 5.33882Z" fill="#DF234F"/>
</svg>
