<svg width="107" height="32" viewBox="0 0 107 32" fill="none" xmlns="http://www.w3.org/2000/svg">
<path d="M102 0H31V32H102C104.761 32 107 29.7614 107 27V5C107 2.23858 104.761 0 102 0Z" fill="#0F1418"/>
<path d="M102 0H31V32H102C104.761 32 107 29.7614 107 27V5C107 2.23858 104.761 0 102 0Z" fill="#0F1418"/>
<path d="M5 0.5H30.5V31.5H5C2.51472 31.5 0.5 29.4853 0.5 27V5C0.5 2.51472 2.51472 0.5 5 0.5Z" fill="white" stroke="#1C2125"/>
<path d="M5 0.5H30.5V31.5H5C2.51472 31.5 0.5 29.4853 0.5 27V5C0.5 2.51472 2.51472 0.5 5 0.5Z" fill="white" stroke="#1C2125"/>
<path d="M54.5879 22H52.2002L47.8716 15.4009C47.6177 15.0151 47.4419 14.7246 47.3443 14.5293H47.315C47.354 14.9004 47.3736 15.4668 47.3736 16.2285V22H45.1397V11.4971H47.6885L51.856 17.8911C52.0464 18.1792 52.2222 18.4648 52.3833 18.748H52.4126C52.3736 18.5039 52.354 18.0229 52.354 17.3052V11.4971H54.5879V22ZM63.9452 18.9092H59.0526C59.1307 19.998 59.8168 20.5425 61.1107 20.5425C61.9359 20.5425 62.661 20.3472 63.286 19.9565V21.6265C62.5926 21.9976 61.6918 22.1831 60.5834 22.1831C59.3724 22.1831 58.4325 21.8486 57.7635 21.1797C57.0946 20.5059 56.7601 19.5684 56.7601 18.3672C56.7601 17.1221 57.1214 16.1357 57.8441 15.4082C58.5668 14.6807 59.4554 14.3169 60.5101 14.3169C61.6039 14.3169 62.4486 14.6416 63.0443 15.291C63.6449 15.9404 63.9452 16.8218 63.9452 17.9351V18.9092ZM61.7992 17.4883C61.7992 16.4141 61.3646 15.877 60.4955 15.877C60.1244 15.877 59.8021 16.0308 59.5287 16.3384C59.2601 16.646 59.0965 17.0293 59.0379 17.4883H61.7992ZM72.7458 14.5L70.2702 18.1328L72.7311 22H70.0651L68.9811 19.9785C68.8932 19.8174 68.7883 19.5903 68.6662 19.2974H68.6369C68.5637 19.5024 68.4636 19.7222 68.3366 19.9565L67.2453 22H64.5866L67.1208 18.2646L64.7404 14.5H67.4211L68.4904 16.6021C68.632 16.8804 68.7321 17.1147 68.7907 17.3052H68.82C68.8981 17.0757 69.0031 16.8364 69.1349 16.5874L70.2262 14.5H72.7458ZM78.5068 21.9121C78.165 22.0928 77.6499 22.1831 76.9614 22.1831C75.3306 22.1831 74.5151 21.3359 74.5151 19.6416V16.2065H73.2993V14.5H74.5151V12.8813L76.8223 12.2222V14.5H78.5068V16.2065H76.8223V19.2388C76.8223 20.02 77.1323 20.4106 77.7524 20.4106C77.9966 20.4106 78.248 20.3398 78.5068 20.1982V21.9121ZM81.0306 22.1831C80.6497 22.1831 80.3323 22.0659 80.0784 21.8315C79.8245 21.5972 79.6976 21.3091 79.6976 20.9673C79.6976 20.6157 79.827 20.3276 80.0858 20.103C80.3494 19.8784 80.6766 19.7661 81.0672 19.7661C81.4627 19.7661 81.785 19.8809 82.034 20.1104C82.2879 20.335 82.4149 20.6206 82.4149 20.9673C82.4149 21.3237 82.2855 21.6167 82.0267 21.8462C81.7728 22.0708 81.4407 22.1831 81.0306 22.1831ZM85.422 13.3135C85.0314 13.3135 84.7116 13.1987 84.4625 12.9692C84.2135 12.7349 84.089 12.4492 84.089 12.1123C84.089 11.7656 84.2135 11.4824 84.4625 11.2627C84.7116 11.043 85.0314 10.9331 85.422 10.9331C85.8175 10.9331 86.1373 11.043 86.3815 11.2627C86.6305 11.4824 86.755 11.7656 86.755 12.1123C86.755 12.4639 86.6305 12.752 86.3815 12.9766C86.1373 13.2012 85.8175 13.3135 85.422 13.3135ZM86.5646 21.8682C86.5646 22.9766 86.2936 23.8628 85.7516 24.5269C85.2096 25.1909 84.4284 25.5229 83.4079 25.5229C83.0709 25.5229 82.7023 25.4497 82.3019 25.3032V23.4868C82.6242 23.6675 82.9098 23.7578 83.1588 23.7578C83.8864 23.7578 84.2501 23.1865 84.2501 22.0439V14.5H86.5646V21.8682ZM88.2021 21.8022V19.9272C88.583 20.1567 88.9614 20.3276 89.3374 20.4399C89.7182 20.5522 90.0771 20.6084 90.414 20.6084C90.8242 20.6084 91.1464 20.5522 91.3808 20.4399C91.6201 20.3276 91.7397 20.1567 91.7397 19.9272C91.7397 19.7808 91.686 19.6587 91.5786 19.561C91.4712 19.4634 91.332 19.3779 91.1611 19.3047C90.9951 19.2314 90.812 19.1655 90.6118 19.1069C90.4116 19.0483 90.2187 18.9824 90.0332 18.9092C89.7353 18.7969 89.4716 18.6772 89.2421 18.5503C89.0175 18.4185 88.8271 18.2671 88.6709 18.0962C88.5195 17.9253 88.4023 17.7275 88.3193 17.5029C88.2412 17.2783 88.2021 17.0122 88.2021 16.7046C88.2021 16.2847 88.2924 15.9233 88.4731 15.6206C88.6587 15.3179 88.9028 15.0713 89.2055 14.8809C89.5131 14.6855 89.8623 14.5439 90.2529 14.4561C90.6484 14.3633 91.0586 14.3169 91.4834 14.3169C91.8154 14.3169 92.1523 14.3438 92.4941 14.3975C92.8359 14.4463 93.1728 14.5195 93.5048 14.6172V16.4043C93.2119 16.2334 92.8969 16.1064 92.56 16.0234C92.228 15.9355 91.9008 15.8916 91.5786 15.8916C91.4272 15.8916 91.2832 15.9062 91.1464 15.9355C91.0146 15.96 90.8974 15.999 90.7949 16.0527C90.6923 16.1016 90.6118 16.1675 90.5532 16.2505C90.4946 16.3286 90.4653 16.4189 90.4653 16.5215C90.4653 16.6582 90.5092 16.7754 90.5971 16.873C90.685 16.9707 90.7998 17.0562 90.9414 17.1294C91.083 17.1978 91.2392 17.2612 91.4101 17.3198C91.5859 17.3735 91.7592 17.4297 91.9301 17.4883C92.2378 17.5957 92.5161 17.7129 92.7651 17.8398C93.0141 17.9668 93.2265 18.1157 93.4023 18.2866C93.583 18.4575 93.7197 18.6577 93.8125 18.8872C93.9101 19.1167 93.9589 19.3901 93.9589 19.7075C93.9589 20.1519 93.8613 20.5327 93.666 20.8501C93.4755 21.1626 93.2192 21.4189 92.8969 21.6191C92.5796 21.8145 92.2109 21.9561 91.791 22.0439C91.3759 22.1367 90.9438 22.1831 90.4946 22.1831C89.6694 22.1831 88.9052 22.0562 88.2021 21.8022Z" fill="white"/>
<path d="M54.5879 22H52.2002L47.8716 15.4009C47.6177 15.0151 47.4419 14.7246 47.3443 14.5293H47.315C47.354 14.9004 47.3736 15.4668 47.3736 16.2285V22H45.1397V11.4971H47.6885L51.856 17.8911C52.0464 18.1792 52.2222 18.4648 52.3833 18.748H52.4126C52.3736 18.5039 52.354 18.0229 52.354 17.3052V11.4971H54.5879V22ZM63.9452 18.9092H59.0526C59.1307 19.998 59.8168 20.5425 61.1107 20.5425C61.9359 20.5425 62.661 20.3472 63.286 19.9565V21.6265C62.5926 21.9976 61.6918 22.1831 60.5834 22.1831C59.3724 22.1831 58.4325 21.8486 57.7635 21.1797C57.0946 20.5059 56.7601 19.5684 56.7601 18.3672C56.7601 17.1221 57.1214 16.1357 57.8441 15.4082C58.5668 14.6807 59.4554 14.3169 60.5101 14.3169C61.6039 14.3169 62.4486 14.6416 63.0443 15.291C63.6449 15.9404 63.9452 16.8218 63.9452 17.9351V18.9092ZM61.7992 17.4883C61.7992 16.4141 61.3646 15.877 60.4955 15.877C60.1244 15.877 59.8021 16.0308 59.5287 16.3384C59.2601 16.646 59.0965 17.0293 59.0379 17.4883H61.7992ZM72.7458 14.5L70.2702 18.1328L72.7311 22H70.0651L68.9811 19.9785C68.8932 19.8174 68.7883 19.5903 68.6662 19.2974H68.6369C68.5637 19.5024 68.4636 19.7222 68.3366 19.9565L67.2453 22H64.5866L67.1208 18.2646L64.7404 14.5H67.4211L68.4904 16.6021C68.632 16.8804 68.7321 17.1147 68.7907 17.3052H68.82C68.8981 17.0757 69.0031 16.8364 69.1349 16.5874L70.2262 14.5H72.7458ZM78.5068 21.9121C78.165 22.0928 77.6499 22.1831 76.9614 22.1831C75.3306 22.1831 74.5151 21.3359 74.5151 19.6416V16.2065H73.2993V14.5H74.5151V12.8813L76.8223 12.2222V14.5H78.5068V16.2065H76.8223V19.2388C76.8223 20.02 77.1323 20.4106 77.7524 20.4106C77.9966 20.4106 78.248 20.3398 78.5068 20.1982V21.9121ZM81.0306 22.1831C80.6497 22.1831 80.3323 22.0659 80.0784 21.8315C79.8245 21.5972 79.6976 21.3091 79.6976 20.9673C79.6976 20.6157 79.827 20.3276 80.0858 20.103C80.3494 19.8784 80.6766 19.7661 81.0672 19.7661C81.4627 19.7661 81.785 19.8809 82.034 20.1104C82.2879 20.335 82.4149 20.6206 82.4149 20.9673C82.4149 21.3237 82.2855 21.6167 82.0267 21.8462C81.7728 22.0708 81.4407 22.1831 81.0306 22.1831ZM85.422 13.3135C85.0314 13.3135 84.7116 13.1987 84.4625 12.9692C84.2135 12.7349 84.089 12.4492 84.089 12.1123C84.089 11.7656 84.2135 11.4824 84.4625 11.2627C84.7116 11.043 85.0314 10.9331 85.422 10.9331C85.8175 10.9331 86.1373 11.043 86.3815 11.2627C86.6305 11.4824 86.755 11.7656 86.755 12.1123C86.755 12.4639 86.6305 12.752 86.3815 12.9766C86.1373 13.2012 85.8175 13.3135 85.422 13.3135ZM86.5646 21.8682C86.5646 22.9766 86.2936 23.8628 85.7516 24.5269C85.2096 25.1909 84.4284 25.5229 83.4079 25.5229C83.0709 25.5229 82.7023 25.4497 82.3019 25.3032V23.4868C82.6242 23.6675 82.9098 23.7578 83.1588 23.7578C83.8864 23.7578 84.2501 23.1865 84.2501 22.0439V14.5H86.5646V21.8682ZM88.2021 21.8022V19.9272C88.583 20.1567 88.9614 20.3276 89.3374 20.4399C89.7182 20.5522 90.0771 20.6084 90.414 20.6084C90.8242 20.6084 91.1464 20.5522 91.3808 20.4399C91.6201 20.3276 91.7397 20.1567 91.7397 19.9272C91.7397 19.7808 91.686 19.6587 91.5786 19.561C91.4712 19.4634 91.332 19.3779 91.1611 19.3047C90.9951 19.2314 90.812 19.1655 90.6118 19.1069C90.4116 19.0483 90.2187 18.9824 90.0332 18.9092C89.7353 18.7969 89.4716 18.6772 89.2421 18.5503C89.0175 18.4185 88.8271 18.2671 88.6709 18.0962C88.5195 17.9253 88.4023 17.7275 88.3193 17.5029C88.2412 17.2783 88.2021 17.0122 88.2021 16.7046C88.2021 16.2847 88.2924 15.9233 88.4731 15.6206C88.6587 15.3179 88.9028 15.0713 89.2055 14.8809C89.5131 14.6855 89.8623 14.5439 90.2529 14.4561C90.6484 14.3633 91.0586 14.3169 91.4834 14.3169C91.8154 14.3169 92.1523 14.3438 92.4941 14.3975C92.8359 14.4463 93.1728 14.5195 93.5048 14.6172V16.4043C93.2119 16.2334 92.8969 16.1064 92.56 16.0234C92.228 15.9355 91.9008 15.8916 91.5786 15.8916C91.4272 15.8916 91.2832 15.9062 91.1464 15.9355C91.0146 15.96 90.8974 15.999 90.7949 16.0527C90.6923 16.1016 90.6118 16.1675 90.5532 16.2505C90.4946 16.3286 90.4653 16.4189 90.4653 16.5215C90.4653 16.6582 90.5092 16.7754 90.5971 16.873C90.685 16.9707 90.7998 17.0562 90.9414 17.1294C91.083 17.1978 91.2392 17.2612 91.4101 17.3198C91.5859 17.3735 91.7592 17.4297 91.9301 17.4883C92.2378 17.5957 92.5161 17.7129 92.7651 17.8398C93.0141 17.9668 93.2265 18.1157 93.4023 18.2866C93.583 18.4575 93.7197 18.6577 93.8125 18.8872C93.9101 19.1167 93.9589 19.3901 93.9589 19.7075C93.9589 20.1519 93.8613 20.5327 93.666 20.8501C93.4755 21.1626 93.2192 21.4189 92.8969 21.6191C92.5796 21.8145 92.2109 21.9561 91.791 22.0439C91.3759 22.1367 90.9438 22.1831 90.4946 22.1831C89.6694 22.1831 88.9052 22.0562 88.2021 21.8022Z" fill="white"/>
<path d="M102 0H31V32H102C104.761 32 107 29.7614 107 27V5C107 2.23858 104.761 0 102 0Z" fill="#0F1418"/>
<path d="M102 0H31V32H102C104.761 32 107 29.7614 107 27V5C107 2.23858 104.761 0 102 0Z" fill="#0F1418"/>
<path d="M5 0.5H30.5V31.5H5C2.51472 31.5 0.5 29.4853 0.5 27V5C0.5 2.51472 2.51472 0.5 5 0.5Z" fill="white" stroke="#1C2125"/>
<path d="M5 0.5H30.5V31.5H5C2.51472 31.5 0.5 29.4853 0.5 27V5C0.5 2.51472 2.51472 0.5 5 0.5Z" fill="#007ACC" stroke="#1C2125"/>
<path d="M43.1486 13.5669H40.5524V21H38.4958V13.5669H35.9123V11.8975H43.1486V13.5669ZM50.1664 14.5L47.5258 21.5205C46.891 23.209 45.9346 24.0532 44.6566 24.0532C44.17 24.0532 43.7701 23.9982 43.4569 23.8882V22.2886C43.7235 22.4451 44.0134 22.5234 44.3266 22.5234C44.8428 22.5234 45.2025 22.2801 45.4057 21.7935L45.7484 20.9873L43.1078 14.5H45.3295L46.5419 18.4546C46.6181 18.7 46.6773 18.9899 46.7196 19.3242H46.745C46.7831 19.0788 46.8529 18.7931 46.9545 18.4673L48.1796 14.5H50.1664ZM53.1598 20.2446H53.1344V23.9897H51.1286V14.5H53.1344V15.4775H53.1598C53.6549 14.7201 54.351 14.3413 55.2482 14.3413C56.0903 14.3413 56.7399 14.6312 57.1969 15.2109C57.6582 15.7865 57.8888 16.5715 57.8888 17.5659C57.8888 18.6493 57.6201 19.5189 57.0827 20.1748C56.5495 20.8307 55.8385 21.1587 54.9498 21.1587C54.167 21.1587 53.5703 20.854 53.1598 20.2446ZM53.1027 17.5786V18.0991C53.1027 18.5477 53.2212 18.9137 53.4581 19.1973C53.6951 19.4808 54.0062 19.6226 54.3913 19.6226C54.8483 19.6226 55.2016 19.4469 55.4513 19.0957C55.7052 18.7402 55.8322 18.2388 55.8322 17.5913C55.8322 16.4487 55.3878 15.8774 54.4992 15.8774C54.0887 15.8774 53.7523 16.034 53.4899 16.3472C53.2317 16.6561 53.1027 17.0666 53.1027 17.5786ZM65.1859 18.3213H60.9457C61.0134 19.265 61.608 19.7368 62.7294 19.7368C63.4445 19.7368 64.073 19.5675 64.6146 19.229V20.6763C64.0137 20.9979 63.233 21.1587 62.2723 21.1587C61.2229 21.1587 60.4083 20.8688 59.8285 20.2891C59.2487 19.7051 58.9589 18.8926 58.9589 17.8516C58.9589 16.7725 59.272 15.9176 59.8983 15.2871C60.5246 14.6566 61.2948 14.3413 62.2089 14.3413C63.1568 14.3413 63.8889 14.6227 64.4052 15.1855C64.9257 15.7484 65.1859 16.5122 65.1859 17.4771V18.3213ZM63.3261 17.0898C63.3261 16.1589 62.9494 15.6934 62.1962 15.6934C61.8746 15.6934 61.5953 15.8267 61.3583 16.0933C61.1255 16.3599 60.9838 16.6921 60.933 17.0898H63.3261ZM66.5416 20.6509V18.6196C66.9098 18.9285 67.3097 19.1613 67.7413 19.3179C68.173 19.4702 68.6088 19.5464 69.049 19.5464C69.3071 19.5464 69.5314 19.5231 69.7218 19.4766C69.9165 19.43 70.0773 19.3665 70.2042 19.2861C70.3354 19.2015 70.4327 19.1042 70.4962 18.9941C70.5597 18.8799 70.5914 18.7572 70.5914 18.626C70.5914 18.4482 70.5407 18.2896 70.4391 18.1499C70.3375 18.0103 70.1979 17.8812 70.0201 17.7627C69.8466 17.6442 69.6393 17.5299 69.3981 17.4199C69.1569 17.3099 68.8966 17.1978 68.6173 17.0835C67.9064 16.7873 67.3753 16.4255 67.0241 15.998C66.677 15.5706 66.5035 15.0544 66.5035 14.4492C66.5035 13.9753 66.5988 13.569 66.7892 13.2305C66.9796 12.8877 67.2378 12.6063 67.5636 12.3862C67.8937 12.1662 68.2745 12.0054 68.7062 11.9038C69.1378 11.798 69.5949 11.7451 70.0773 11.7451C70.5512 11.7451 70.9702 11.7747 71.3341 11.834C71.7023 11.889 72.0408 11.9757 72.3497 12.0942V13.9922C72.1974 13.8864 72.0302 13.7933 71.8483 13.7129C71.6705 13.6325 71.4865 13.5669 71.296 13.5161C71.1056 13.4611 70.9152 13.4209 70.7247 13.3955C70.5385 13.3701 70.3608 13.3574 70.1915 13.3574C69.9588 13.3574 69.7472 13.3807 69.5568 13.4272C69.3663 13.4696 69.2055 13.5309 69.0743 13.6113C68.9432 13.6917 68.8416 13.7891 68.7697 13.9033C68.6977 14.0133 68.6617 14.1382 68.6617 14.2778C68.6617 14.4302 68.7019 14.5677 68.7824 14.6904C68.8628 14.8089 68.977 14.9232 69.1251 15.0332C69.2732 15.139 69.4531 15.2448 69.6647 15.3506C69.8763 15.4521 70.1154 15.5579 70.382 15.668C70.7459 15.8203 71.0717 15.9832 71.3595 16.1567C71.6515 16.326 71.9012 16.5186 72.1085 16.7344C72.3159 16.9502 72.4746 17.1978 72.5846 17.4771C72.6946 17.7521 72.7496 18.0737 72.7496 18.4419C72.7496 18.9497 72.6523 19.3771 72.4576 19.7241C72.2672 20.0669 72.007 20.3462 71.6769 20.562C71.3468 20.7736 70.9617 20.9259 70.5216 21.019C70.0857 21.1121 69.6245 21.1587 69.1378 21.1587C68.6385 21.1587 68.1624 21.1164 67.7096 21.0317C67.261 20.9471 66.8717 20.8201 66.5416 20.6509ZM79.3612 20.7651C78.9084 21.0275 78.2546 21.1587 77.3998 21.1587C76.4011 21.1587 75.5928 20.8561 74.975 20.251C74.3571 19.6458 74.0482 18.8651 74.0482 17.9087C74.0482 16.8042 74.3783 15.9346 75.0384 15.2998C75.7028 14.6608 76.5894 14.3413 77.6981 14.3413C78.4641 14.3413 79.0184 14.4429 79.3612 14.646V16.3472C78.9423 16.034 78.4746 15.8774 77.9584 15.8774C77.3828 15.8774 76.9258 16.0467 76.5873 16.3853C76.253 16.7196 76.0858 17.1829 76.0858 17.7754C76.0858 18.3509 76.2466 18.8037 76.5682 19.1338C76.8898 19.4596 77.3321 19.6226 77.8949 19.6226C78.3942 19.6226 78.883 19.466 79.3612 19.1528V20.7651ZM85.0778 16.3091C84.8365 16.1779 84.5551 16.1123 84.2335 16.1123C83.7976 16.1123 83.457 16.2731 83.2115 16.5947C82.9661 16.9121 82.8434 17.3459 82.8434 17.896V21H80.8375V14.5H82.8434V15.7061H82.8688C83.1861 14.8258 83.7574 14.3857 84.5826 14.3857C84.7942 14.3857 84.9593 14.4111 85.0778 14.4619V16.3091ZM87.2396 13.4717C86.9011 13.4717 86.6239 13.3722 86.4081 13.1733C86.1922 12.9702 86.0843 12.7227 86.0843 12.4307C86.0843 12.1302 86.1922 11.8848 86.4081 11.6943C86.6239 11.5039 86.9011 11.4087 87.2396 11.4087C87.5824 11.4087 87.8596 11.5039 88.0712 11.6943C88.287 11.8848 88.3949 12.1302 88.3949 12.4307C88.3949 12.7354 88.287 12.985 88.0712 13.1797C87.8596 13.3743 87.5824 13.4717 87.2396 13.4717ZM88.2298 21H86.224V14.5H88.2298V21ZM92.1056 20.2446H92.0802V23.9897H90.0743V14.5H92.0802V15.4775H92.1056C92.6007 14.7201 93.2968 14.3413 94.194 14.3413C95.0361 14.3413 95.6856 14.6312 96.1427 15.2109C96.6039 15.7865 96.8346 16.5715 96.8346 17.5659C96.8346 18.6493 96.5659 19.5189 96.0284 20.1748C95.4952 20.8307 94.7843 21.1587 93.8956 21.1587C93.1127 21.1587 92.5161 20.854 92.1056 20.2446ZM92.0484 17.5786V18.0991C92.0484 18.5477 92.1669 18.9137 92.4039 19.1973C92.6409 19.4808 92.9519 19.6226 93.337 19.6226C93.794 19.6226 94.1474 19.4469 94.3971 19.0957C94.651 18.7402 94.7779 18.2388 94.7779 17.5913C94.7779 16.4487 94.3336 15.8774 93.4449 15.8774C93.0344 15.8774 92.698 16.034 92.4356 16.3472C92.1775 16.6561 92.0484 17.0666 92.0484 17.5786ZM102.221 20.9238C101.925 21.0804 101.478 21.1587 100.882 21.1587C99.4683 21.1587 98.7616 20.4245 98.7616 18.9561V15.979H97.7079V14.5H98.7616V13.0972L100.761 12.5259V14.5H102.221V15.979H100.761V18.6069C100.761 19.284 101.03 19.6226 101.567 19.6226C101.779 19.6226 101.997 19.5612 102.221 19.4385V20.9238Z" fill="white"/>
<path d="M6.42773 11.8125H25.8945V25.6256H6.42773V11.8125Z" fill="white"/>
<path d="M2.29297 14.9832V26.7019H26.707V3.2644H2.29297V14.9832ZM21.9668 14.0457C22.5515 14.1759 23.083 14.4695 23.4941 14.8894C23.7205 15.1156 23.9172 15.3675 24.0801 15.6394C24.0801 15.6694 23.0254 16.3538 22.3828 16.7363C22.3594 16.7513 22.2656 16.6538 22.1621 16.5057C22.0448 16.3113 21.8781 16.1487 21.6776 16.033C21.4772 15.9172 21.2494 15.8522 21.0156 15.8438C20.2754 15.795 19.7988 16.1682 19.8027 16.7813C19.7966 16.9339 19.833 17.0854 19.9082 17.22C20.0703 17.5444 20.373 17.7375 21.3223 18.1313C23.0703 18.8532 23.8184 19.3294 24.2832 20.0063C24.8027 20.7563 24.918 21.9675 24.5664 22.8638C24.1758 23.8388 23.2187 24.5007 21.8652 24.72C21.247 24.788 20.6224 24.7817 20.0059 24.7013C19.0609 24.5517 18.1904 24.1162 17.5215 23.4582C17.2969 23.22 16.8594 22.5994 16.8867 22.5544C16.958 22.5036 17.0331 22.4578 17.1113 22.4175L18.0156 21.9375L18.7168 21.5475L18.8633 21.7557C19.1105 22.0951 19.4251 22.3844 19.7891 22.6069C20.5703 23.0007 21.6367 22.9463 22.1641 22.4907C22.3411 22.3237 22.4516 22.1024 22.4762 21.8653C22.5008 21.6283 22.4381 21.3904 22.2988 21.1932C22.1035 20.9325 21.7129 20.7132 20.6211 20.2557C19.3613 19.7344 18.8184 19.4119 18.3223 18.8982C18.0126 18.5591 17.7839 18.1591 17.6523 17.7263C17.5542 17.2317 17.5397 16.7252 17.6094 16.2263C17.8691 15.0582 18.7812 14.2425 20.1133 14.0007C20.7302 13.9274 21.355 13.9438 21.9668 14.0494V14.0457ZM16.2363 15.0282V15.9882H13.0664V24.6563H10.8184V15.9863H7.64062V15.0488C7.63073 14.7255 7.63855 14.4019 7.66406 14.0794C7.67969 14.0625 9.61719 14.0625 11.9609 14.0625H16.2246L16.2363 15.0282Z" fill="#007ACC"/>
</svg>
