<svg width="77" height="32" viewBox="0 0 77 32" fill="none" xmlns="http://www.w3.org/2000/svg">
<path d="M72 0H32V32H72C74.7614 32 77 29.7614 77 27V5C77 2.23858 74.7614 0 72 0Z" fill="#0F1418"/>
<path d="M5 0.5H31.5V31.5H5C2.51472 31.5 0.5 29.4853 0.5 27V5C0.5 2.51472 2.51472 0.5 5 0.5Z" fill="white" stroke="#1C2125"/>
<path d="M5 0.5H31.5V31.5H5C2.51472 31.5 0.5 29.4853 0.5 27V5C0.5 2.51472 2.51472 0.5 5 0.5Z" fill="white" stroke="#1C2125"/>
<path d="M69 0H32V32H69C71.7614 32 74 29.7614 74 27V5C74 2.23858 71.7614 0 69 0Z" fill="#0F1418"/>
<path d="M5 0.5H31.5V31.5H5C2.51472 31.5 0.5 29.4853 0.5 27V5C0.5 2.51472 2.51472 0.5 5 0.5Z" fill="white" stroke="#1C2125"/>
<path d="M43.9911 11.8975L41.0077 17.6929V21H39.497V17.7246L36.5897 11.8975H38.3099L40.1 15.8013C40.1211 15.8478 40.1846 16.0234 40.2904 16.3281H40.3095C40.3475 16.1927 40.4174 16.0171 40.5189 15.8013L42.3915 11.8975H43.9911ZM49.1427 21H47.7145V19.9844H47.6891C47.2405 20.763 46.5825 21.1523 45.715 21.1523C45.076 21.1523 44.5745 20.9788 44.2106 20.6318C43.8509 20.2848 43.671 19.8257 43.671 19.2544C43.671 18.0272 44.3777 17.312 45.7911 17.1089L47.7208 16.8359C47.7208 15.9092 47.2807 15.4458 46.4005 15.4458C45.6261 15.4458 44.9279 15.7124 44.3058 16.2456V14.957C44.9913 14.5508 45.7827 14.3477 46.6798 14.3477C48.3217 14.3477 49.1427 15.1559 49.1427 16.7725V21ZM47.7208 17.8071L46.3561 17.9976C45.9329 18.0526 45.6134 18.1562 45.3976 18.3086C45.186 18.4567 45.0802 18.7191 45.0802 19.0957C45.0802 19.3708 45.1775 19.5972 45.3722 19.7749C45.5711 19.9484 45.8356 20.0352 46.1657 20.0352C46.6142 20.0352 46.9845 19.8786 47.2765 19.5654C47.5727 19.248 47.7208 18.8503 47.7208 18.3721V17.8071ZM54.8719 15.9028C54.6942 15.7632 54.4382 15.6934 54.1039 15.6934C53.668 15.6934 53.3041 15.8901 53.0121 16.2837C52.7201 16.6772 52.5741 17.2126 52.5741 17.8896V21H51.1014V14.5H52.5741V15.8394H52.5995C52.7434 15.3823 52.9634 15.0269 53.2596 14.7729C53.5601 14.5148 53.8944 14.3857 54.2626 14.3857C54.5292 14.3857 54.7323 14.4259 54.8719 14.5063V15.9028ZM61.858 21H60.3854V17.3374C60.3854 16.1229 59.9558 15.5156 59.0968 15.5156C58.6482 15.5156 58.2779 15.6849 57.986 16.0234C57.694 16.3577 57.548 16.7809 57.548 17.293V21H56.069V14.5H57.548V15.5791H57.5734C58.06 14.7581 58.7625 14.3477 59.6808 14.3477C60.3875 14.3477 60.927 14.5783 61.2994 15.0396C61.6718 15.4966 61.858 16.1589 61.858 17.0264V21Z" fill="white"/>
<path d="M21.3829 19.1331C20.5352 19.1425 19.793 19.5625 19.1661 19.9375C17.9942 20.6331 17.4083 20.5881 17.4083 20.5881L17.3887 20.5563C17.3087 20.4306 17.7637 19.3038 17.254 17.9613C16.7032 16.4931 15.8282 16.1388 15.8985 16.0263C16.1973 15.5406 16.9454 14.77 17.2442 13.3338C17.4219 12.4638 17.3751 11.0313 16.9727 10.2813C16.8985 10.1425 16.2344 10.5138 16.2344 10.5138C16.2344 10.5138 15.6134 9.18439 15.4395 9.07751C14.879 8.73251 14.2676 10.5044 14.2676 10.5044C13.8443 10.4646 13.4172 10.5201 13.0201 10.6666C12.6231 10.813 12.2671 11.0464 11.9805 11.3481C11.7681 11.5446 11.5105 11.6904 11.2286 11.7738C11.1485 11.8 11.0509 11.7963 10.8087 12.4244C10.4376 13.375 11.4415 14.4513 11.4415 14.4513C11.4415 14.4513 10.2442 15.2631 9.80085 16.2738C9.50472 16.9666 9.38746 17.718 9.45905 18.4638C9.45905 18.4638 8.60749 19.1725 8.5528 19.9038C8.50204 20.416 8.62317 20.9304 8.89851 21.3719C8.91999 21.416 8.95047 21.4554 8.98813 21.488C9.0258 21.5205 9.06988 21.5455 9.11778 21.5614C9.16567 21.5773 9.21641 21.5839 9.26697 21.5806C9.31754 21.5774 9.36692 21.5644 9.41218 21.5425C9.41218 21.5425 8.84577 22.1763 9.37507 22.4444C9.85749 22.6863 10.67 22.8194 11.0997 22.4088C11.4122 22.1088 11.4747 21.4394 11.5899 21.1656C11.6173 21.1019 11.711 21.2725 11.8009 21.3531C11.8837 21.4227 11.9726 21.4854 12.0665 21.5406C12.0665 21.5406 11.3048 21.8556 11.6173 22.5738C11.7208 22.8119 12.0899 22.9638 12.6934 22.96C12.918 22.96 15.3809 22.825 16.0372 22.6731C16.2356 22.6429 16.4163 22.5459 16.5469 22.3994C17.6125 22.0951 18.6303 21.6536 19.5723 21.0869C20.4981 20.5075 20.877 20.35 21.6251 20.1794C22.2423 20.0388 22.2012 19.12 21.3829 19.1331V19.1331Z" fill="#2C8EBB"/>
<path d="M14.5 4.375C12.105 4.375 9.76377 5.05679 7.7724 6.33417C5.78102 7.61154 4.22893 9.42711 3.3124 11.5513C2.39587 13.6755 2.15607 16.0129 2.62331 18.2679C3.09055 20.523 4.24386 22.5943 5.93738 24.2201C7.63091 25.8459 9.78859 26.9531 12.1376 27.4016C14.4866 27.8502 16.9214 27.62 19.1341 26.7401C21.3468 25.8602 23.238 24.3702 24.5686 22.4585C25.8992 20.5468 26.6094 18.2992 26.6094 16C26.6094 12.9169 25.3336 9.95999 23.0626 7.77988C20.7917 5.59977 17.7116 4.375 14.5 4.375V4.375ZM21.7852 20.8431C21.1309 20.995 20.8262 21.1131 19.9473 21.6606C18.9985 22.2324 17.9771 22.6849 16.9082 23.0069C16.7017 23.1696 16.4581 23.2833 16.1973 23.3387C15.4531 23.5131 12.9004 23.6444 12.6992 23.6444H12.6523C11.8711 23.6444 11.4277 23.4119 11.1895 23.1681C10.5254 23.4869 9.66602 23.3556 9.04102 23.0388C8.89137 22.9683 8.76065 22.8657 8.65903 22.7389C8.5574 22.612 8.48762 22.4644 8.45508 22.3075C8.43189 22.1797 8.43189 22.049 8.45508 21.9213C8.39753 21.8636 8.34586 21.8008 8.30079 21.7338C7.94598 21.167 7.79117 20.5055 7.85938 19.8475C7.91602 19.1481 8.41993 18.5238 8.74805 18.1919C8.72078 17.4423 8.85786 16.6955 9.1504 16C9.46463 15.3531 9.9187 14.7779 10.4824 14.3125C10.1602 13.7913 9.83204 12.9888 10.1504 12.1713C10.3789 11.5881 10.5664 11.2638 10.9785 11.125C11.1585 11.0752 11.3255 10.9896 11.4688 10.8737C12.0698 10.247 12.8995 9.86683 13.7852 9.8125C13.8223 9.7225 13.8652 9.625 13.9121 9.53875C14.2246 8.90125 14.5566 8.54313 14.9453 8.41375C15.0861 8.36322 15.2374 8.34537 15.3867 8.36166C15.5361 8.37795 15.6793 8.42793 15.8047 8.5075C15.9316 8.58813 16.0938 8.695 16.5664 9.6325C16.7454 9.57093 16.94 9.56438 17.1231 9.61375C17.2229 9.63987 17.316 9.68572 17.3964 9.74835C17.4768 9.81099 17.5427 9.88903 17.5898 9.9775C18.0723 10.8662 18.1367 12.4506 17.9258 13.4688C17.7386 14.3702 17.3494 15.2218 16.7852 15.9644C17.2898 16.4684 17.6744 17.0717 17.9121 17.7325C18.1445 18.3576 18.2383 19.0224 18.1875 19.6844C18.3975 19.5879 18.601 19.4789 18.7969 19.3581C19.3945 19.0038 20.2969 18.4694 21.3731 18.4562C21.6995 18.4353 22.0221 18.5339 22.2758 18.7322C22.5295 18.9306 22.6955 19.2138 22.7402 19.525C22.781 19.8195 22.7057 20.118 22.529 20.3619C22.3523 20.6058 22.087 20.7774 21.7852 20.8431V20.8431Z" fill="#2C8EBB"/>
</svg>
