<svg width="92" height="40" viewBox="0 0 92 40" fill="none" xmlns="http://www.w3.org/2000/svg">
<g filter="url(#filter0_d)">
<path d="M81 0H33V32H81C83.7614 32 86 29.7614 86 27V5C86 2.23858 83.7614 0 81 0Z" fill="#0F1418"/>
<path d="M74 0H35V32H74C76.7614 32 79 29.7614 79 27V5C79 2.23858 76.7614 0 74 0Z" fill="#0F1418"/>
<path d="M9 0.5H34.5V31.5H9C6.51472 31.5 4.5 29.4853 4.5 27V5C4.5 2.51472 6.51472 0.5 9 0.5Z" fill="white" stroke="#1C2125"/>
<path d="M9 0.5H34.5V31.5H9C6.51472 31.5 4.5 29.4853 4.5 27V5C4.5 2.51472 6.51472 0.5 9 0.5Z" fill="white" stroke="#1C2125"/>
<path d="M83 0H35V32H83C85.7614 32 88 29.7614 88 27V5C88 2.23858 85.7614 0 83 0Z" fill="#0F1418"/>
<path d="M9 0.5H34.5V31.5H9C6.51472 31.5 4.5 29.4853 4.5 27V5C4.5 2.51472 6.51472 0.5 9 0.5Z" fill="white" stroke="#1C2125"/>
<path d="M49.2626 11.8975L46.2982 17.7627V21H44.2479V17.8008L41.3597 11.8975H43.702L45.1683 15.2935C45.1937 15.3569 45.2636 15.6045 45.3778 16.0361H45.4032C45.4582 15.7314 45.5238 15.4924 45.6 15.3188L47.0917 11.8975H49.2626ZM54.7252 21H52.8273V20.0669H52.8019C52.366 20.7948 51.7207 21.1587 50.8658 21.1587C50.2353 21.1587 49.7381 20.981 49.3741 20.6255C49.0144 20.2658 48.8346 19.7876 48.8346 19.1909C48.8346 17.9299 49.5815 17.202 51.0753 17.0073L52.84 16.7725C52.84 16.0615 52.4549 15.7061 51.6847 15.7061C50.9103 15.7061 50.174 15.9367 49.4757 16.3979V14.8872C49.755 14.7433 50.1359 14.6164 50.6183 14.5063C51.1049 14.3963 51.5472 14.3413 51.9449 14.3413C53.7985 14.3413 54.7252 15.266 54.7252 17.1152V21ZM52.84 18.3594V17.9214L51.6593 18.0737C51.0076 18.1584 50.6818 18.4525 50.6818 18.9561C50.6818 19.1846 50.7601 19.3729 50.9166 19.521C51.0774 19.6649 51.2933 19.7368 51.5641 19.7368C51.9407 19.7368 52.2475 19.6077 52.4845 19.3496C52.7215 19.0872 52.84 18.7572 52.84 18.3594ZM60.7084 16.3091C60.4672 16.1779 60.1857 16.1123 59.8641 16.1123C59.4283 16.1123 59.0876 16.2731 58.8422 16.5947C58.5967 16.9121 58.474 17.3459 58.474 17.896V21H56.4681V14.5H58.474V15.7061H58.4994C58.8168 14.8258 59.3881 14.3857 60.2133 14.3857C60.4248 14.3857 60.5899 14.4111 60.7084 14.4619V16.3091ZM68.1197 21H66.1202V17.3882C66.1202 16.381 65.7605 15.8774 65.0411 15.8774C64.6941 15.8774 64.4085 16.0107 64.1842 16.2773C63.9599 16.5439 63.8478 16.8825 63.8478 17.293V21H61.8419V14.5H63.8478V15.5283H63.8732C64.3514 14.737 65.0475 14.3413 65.9615 14.3413C67.4003 14.3413 68.1197 15.2342 68.1197 17.02V21Z" fill="white"/>
<path d="M24.6075 19.1331C23.7938 19.1425 23.0813 19.5625 22.4794 19.9375C21.3544 20.6331 20.7919 20.5881 20.7919 20.5881L20.7731 20.5563C20.6963 20.4306 21.1331 19.3038 20.6438 17.9613C20.115 16.4931 19.275 16.1388 19.3425 16.0263C19.6294 15.5406 20.3475 14.77 20.6344 13.3338C20.805 12.4638 20.76 11.0313 20.3738 10.2813C20.3025 10.1425 19.665 10.5138 19.665 10.5138C19.665 10.5138 19.0688 9.18439 18.9019 9.07751C18.3638 8.73251 17.7769 10.5044 17.7769 10.5044C17.3705 10.4646 16.9604 10.5201 16.5793 10.6666C16.1981 10.813 15.8564 11.0464 15.5813 11.3481C15.3773 11.5446 15.13 11.6904 14.8594 11.7738C14.7825 11.8 14.6888 11.7963 14.4563 12.4244C14.1 13.375 15.0638 14.4513 15.0638 14.4513C15.0638 14.4513 13.9144 15.2631 13.4888 16.2738C13.2045 16.9666 13.0919 17.718 13.1606 18.4638C13.1606 18.4638 12.3431 19.1725 12.2906 19.9038C12.2419 20.416 12.3582 20.9304 12.6225 21.3719C12.6431 21.416 12.6724 21.4554 12.7086 21.488C12.7447 21.5205 12.787 21.5455 12.833 21.5614C12.879 21.5773 12.9277 21.5839 12.9762 21.5806C13.0248 21.5774 13.0722 21.5644 13.1156 21.5425C13.1156 21.5425 12.5719 22.1763 13.08 22.4444C13.5431 22.6863 14.3231 22.8194 14.7356 22.4088C15.0356 22.1088 15.0956 21.4394 15.2063 21.1656C15.2325 21.1019 15.3225 21.2725 15.4088 21.3531C15.4883 21.4227 15.5736 21.4854 15.6638 21.5406C15.6638 21.5406 14.9325 21.8556 15.2325 22.5738C15.3319 22.8119 15.6863 22.9638 16.2656 22.96C16.4813 22.96 18.8456 22.825 19.4756 22.6731C19.6661 22.6429 19.8396 22.5459 19.965 22.3994C20.988 22.0951 21.965 21.6536 22.8694 21.0869C23.7581 20.5075 24.1219 20.35 24.84 20.1794C25.4325 20.0388 25.3931 19.12 24.6075 19.1331V19.1331Z" fill="#2C8EBB"/>
<path d="M18 4.375C15.7008 4.375 13.4532 5.05679 11.5415 6.33417C9.62978 7.61154 8.13977 9.42711 7.25991 11.5513C6.38004 13.6755 6.14982 16.0129 6.59838 18.2679C7.04693 20.523 8.1541 22.5943 9.77989 24.2201C11.4057 25.8459 13.4771 26.9531 15.7321 27.4016C17.9871 27.8502 20.3245 27.62 22.4487 26.7401C24.5729 25.8602 26.3885 24.3702 27.6658 22.4585C28.9432 20.5468 29.625 18.2992 29.625 16C29.625 12.9169 28.4002 9.95999 26.2201 7.77988C24.04 5.59977 21.0831 4.375 18 4.375V4.375ZM24.9938 20.8431C24.3656 20.995 24.0731 21.1131 23.2294 21.6606C22.3185 22.2324 21.338 22.6849 20.3119 23.0069C20.1136 23.1696 19.8798 23.2833 19.6294 23.3387C18.915 23.5131 16.4644 23.6444 16.2713 23.6444H16.2263C15.4763 23.6444 15.0506 23.4119 14.8219 23.1681C14.1844 23.4869 13.3594 23.3556 12.7594 23.0388C12.6157 22.9683 12.4902 22.8657 12.3927 22.7389C12.2951 22.612 12.2281 22.4644 12.1969 22.3075C12.1746 22.1797 12.1746 22.049 12.1969 21.9213C12.1416 21.8636 12.092 21.8008 12.0488 21.7338C11.7081 21.167 11.5595 20.5055 11.625 19.8475C11.6794 19.1481 12.1631 18.5238 12.4781 18.1919C12.452 17.4423 12.5835 16.6955 12.8644 16C13.166 15.3531 13.602 14.7779 14.1431 14.3125C13.8338 13.7913 13.5188 12.9888 13.8244 12.1713C14.0438 11.5881 14.2238 11.2638 14.6194 11.125C14.7921 11.0752 14.9525 10.9896 15.09 10.8737C15.667 10.247 16.4635 9.86683 17.3138 9.8125C17.3494 9.7225 17.3906 9.625 17.4356 9.53875C17.7356 8.90125 18.0544 8.54313 18.4275 8.41375C18.5627 8.36322 18.7079 8.34537 18.8513 8.36166C18.9946 8.37795 19.1321 8.42793 19.2525 8.5075C19.3744 8.58813 19.53 8.695 19.9838 9.6325C20.1556 9.57093 20.3424 9.56438 20.5181 9.61375C20.614 9.63987 20.7034 9.68572 20.7806 9.74835C20.8577 9.81099 20.921 9.88903 20.9663 9.9775C21.4294 10.8662 21.4913 12.4506 21.2888 13.4688C21.1091 14.3702 20.7354 15.2218 20.1938 15.9644C20.6782 16.4684 21.0474 17.0717 21.2756 17.7325C21.4987 18.3576 21.5887 19.0224 21.54 19.6844C21.7416 19.5879 21.937 19.4789 22.125 19.3581C22.6988 19.0038 23.565 18.4694 24.5981 18.4562C24.9115 18.4353 25.2212 18.5339 25.4648 18.7322C25.7084 18.9306 25.8677 19.2138 25.9106 19.525C25.9498 19.8195 25.8775 20.118 25.7078 20.3619C25.5382 20.6058 25.2835 20.7774 24.9938 20.8431V20.8431Z" fill="#2C8EBB"/>
</g>
<defs>
<filter id="filter0_d" x="0" y="0" width="92" height="40" filterUnits="userSpaceOnUse" color-interpolation-filters="sRGB">
<feFlood flood-opacity="0" result="BackgroundImageFix"/>
<feColorMatrix in="SourceAlpha" type="matrix" values="0 0 0 0 0 0 0 0 0 0 0 0 0 0 0 0 0 0 127 0" result="hardAlpha"/>
<feOffset dy="4"/>
<feGaussianBlur stdDeviation="2"/>
<feComposite in2="hardAlpha" operator="out"/>
<feColorMatrix type="matrix" values="0 0 0 0 0 0 0 0 0 0 0 0 0 0 0 0 0 0 0.25 0"/>
<feBlend mode="normal" in2="BackgroundImageFix" result="effect1_dropShadow"/>
<feBlend mode="normal" in="SourceGraphic" in2="effect1_dropShadow" result="shape"/>
</filter>
</defs>
</svg>
